<mxfile host="65bd71144e">
    <diagram id="C6bjyGj3N_BJl5rJUEWG" name="ex1">
        <mxGraphModel dx="883" dy="609" grid="1" gridSize="10" guides="1" tooltips="1" connect="1" arrows="1" fold="1" page="1" pageScale="1" pageWidth="827" pageHeight="1169" math="0" shadow="0">
            <root>
                <mxCell id="0"/>
                <mxCell id="1" parent="0"/>
                <mxCell id="2" value="Compte" style="swimlane;fontStyle=0;align=center;verticalAlign=top;childLayout=stackLayout;horizontal=1;startSize=40;horizontalStack=0;resizeParent=1;resizeParentMax=0;resizeLast=0;collapsible=0;marginBottom=0;html=1;" parent="1" vertex="1">
                    <mxGeometry x="40" y="160" width="140" height="160" as="geometry"/>
                </mxCell>
                <mxCell id="3" value="id" style="text;html=1;strokeColor=none;fillColor=none;align=left;verticalAlign=middle;spacingLeft=4;spacingRight=4;overflow=hidden;rotatable=0;points=[[0,0.5],[1,0.5]];portConstraint=eastwest;" parent="2" vertex="1">
                    <mxGeometry y="40" width="140" height="30" as="geometry"/>
                </mxCell>
                <mxCell id="4" value="solde" style="text;html=1;strokeColor=none;fillColor=none;align=left;verticalAlign=middle;spacingLeft=4;spacingRight=4;overflow=hidden;rotatable=0;points=[[0,0.5],[1,0.5]];portConstraint=eastwest;" parent="2" vertex="1">
                    <mxGeometry y="70" width="140" height="30" as="geometry"/>
                </mxCell>
                <mxCell id="11" value="iban" style="text;html=1;strokeColor=none;fillColor=none;align=left;verticalAlign=middle;spacingLeft=4;spacingRight=4;overflow=hidden;rotatable=0;points=[[0,0.5],[1,0.5]];portConstraint=eastwest;" parent="2" vertex="1">
                    <mxGeometry y="100" width="140" height="30" as="geometry"/>
                </mxCell>
                <mxCell id="12" value="numeroCompte" style="text;html=1;strokeColor=none;fillColor=none;align=left;verticalAlign=middle;spacingLeft=4;spacingRight=4;overflow=hidden;rotatable=0;points=[[0,0.5],[1,0.5]];portConstraint=eastwest;" parent="2" vertex="1">
                    <mxGeometry y="130" width="140" height="30" as="geometry"/>
                </mxCell>
                <mxCell id="5" value="Client" style="swimlane;fontStyle=0;align=center;verticalAlign=top;childLayout=stackLayout;horizontal=1;startSize=40;horizontalStack=0;resizeParent=1;resizeParentMax=0;resizeLast=0;collapsible=0;marginBottom=0;html=1;" parent="1" vertex="1">
                    <mxGeometry x="600" y="160" width="140" height="160" as="geometry"/>
                </mxCell>
                <mxCell id="7" value="id" style="text;html=1;strokeColor=none;fillColor=none;align=left;verticalAlign=middle;spacingLeft=4;spacingRight=4;overflow=hidden;rotatable=0;points=[[0,0.5],[1,0.5]];portConstraint=eastwest;" parent="5" vertex="1">
                    <mxGeometry y="40" width="140" height="30" as="geometry"/>
                </mxCell>
                <mxCell id="13" value="nom" style="text;html=1;strokeColor=none;fillColor=none;align=left;verticalAlign=middle;spacingLeft=4;spacingRight=4;overflow=hidden;rotatable=0;points=[[0,0.5],[1,0.5]];portConstraint=eastwest;" parent="5" vertex="1">
                    <mxGeometry y="70" width="140" height="30" as="geometry"/>
                </mxCell>
                <mxCell id="14" value="prenom" style="text;html=1;strokeColor=none;fillColor=none;align=left;verticalAlign=middle;spacingLeft=4;spacingRight=4;overflow=hidden;rotatable=0;points=[[0,0.5],[1,0.5]];portConstraint=eastwest;" parent="5" vertex="1">
                    <mxGeometry y="100" width="140" height="30" as="geometry"/>
                </mxCell>
                <mxCell id="15" value="adresse" style="text;html=1;strokeColor=none;fillColor=none;align=left;verticalAlign=middle;spacingLeft=4;spacingRight=4;overflow=hidden;rotatable=0;points=[[0,0.5],[1,0.5]];portConstraint=eastwest;" parent="5" vertex="1">
                    <mxGeometry y="130" width="140" height="30" as="geometry"/>
                </mxCell>
                <mxCell id="9" value="0,n" style="edgeStyle=none;html=1;exitX=0;exitY=0.5;exitDx=0;exitDy=0;entryX=1;entryY=0.5;entryDx=0;entryDy=0;endArrow=none;endFill=0;" parent="1" target="41" edge="1">
                    <mxGeometry relative="1" as="geometry">
                        <mxPoint x="600" y="215" as="sourcePoint"/>
                        <mxPoint x="450" y="245" as="targetPoint"/>
                    </mxGeometry>
                </mxCell>
                <mxCell id="10" style="edgeStyle=none;html=1;exitX=1;exitY=0.5;exitDx=0;exitDy=0;entryX=0;entryY=0.5;entryDx=0;entryDy=0;endArrow=none;endFill=0;" parent="1" source="3" target="41" edge="1">
                    <mxGeometry relative="1" as="geometry">
                        <mxPoint x="350" y="245" as="targetPoint"/>
                    </mxGeometry>
                </mxCell>
                <mxCell id="16" value="0,n" style="edgeLabel;html=1;align=center;verticalAlign=middle;resizable=0;points=[];" parent="10" vertex="1" connectable="0">
                    <mxGeometry x="-0.3523" relative="1" as="geometry">
                        <mxPoint as="offset"/>
                    </mxGeometry>
                </mxCell>
                <mxCell id="17" value="&lt;h1&gt;Exercice 1&lt;/h1&gt;&lt;p&gt;Dessinez le MCD et le MLD pour cette situation: comptes bancaires qui appartiennent aux clients de la banque&lt;/p&gt;" style="text;html=1;strokeColor=none;fillColor=none;spacing=5;spacingTop=-20;whiteSpace=wrap;overflow=hidden;rounded=0;" parent="1" vertex="1">
                    <mxGeometry x="30" y="10" width="740" height="120" as="geometry"/>
                </mxCell>
                <mxCell id="18" value="&lt;b&gt;&lt;font style=&quot;font-size: 15px&quot;&gt;MCD&lt;/font&gt;&lt;/b&gt;" style="text;html=1;strokeColor=none;fillColor=none;align=center;verticalAlign=middle;whiteSpace=wrap;rounded=0;" parent="1" vertex="1">
                    <mxGeometry x="20" y="100" width="60" height="30" as="geometry"/>
                </mxCell>
                <mxCell id="19" value="&lt;b&gt;&lt;font style=&quot;font-size: 15px&quot;&gt;MLD&lt;/font&gt;&lt;/b&gt;" style="text;html=1;strokeColor=none;fillColor=none;align=center;verticalAlign=middle;whiteSpace=wrap;rounded=0;" parent="1" vertex="1">
                    <mxGeometry x="20" y="390" width="60" height="30" as="geometry"/>
                </mxCell>
                <mxCell id="20" value="Compte" style="swimlane;fontStyle=0;align=center;verticalAlign=top;childLayout=stackLayout;horizontal=1;startSize=40;horizontalStack=0;resizeParent=1;resizeParentMax=0;resizeLast=0;collapsible=0;marginBottom=0;html=1;" parent="1" vertex="1">
                    <mxGeometry x="40" y="440" width="140" height="160" as="geometry"/>
                </mxCell>
                <mxCell id="21" value="id" style="text;html=1;strokeColor=#001DBC;fillColor=#0050ef;align=left;verticalAlign=middle;spacingLeft=4;spacingRight=4;overflow=hidden;rotatable=0;points=[[0,0.5],[1,0.5]];portConstraint=eastwest;fontColor=#ffffff;" parent="20" vertex="1">
                    <mxGeometry y="40" width="140" height="30" as="geometry"/>
                </mxCell>
                <mxCell id="22" value="solde" style="text;html=1;strokeColor=none;fillColor=none;align=left;verticalAlign=middle;spacingLeft=4;spacingRight=4;overflow=hidden;rotatable=0;points=[[0,0.5],[1,0.5]];portConstraint=eastwest;" parent="20" vertex="1">
                    <mxGeometry y="70" width="140" height="30" as="geometry"/>
                </mxCell>
                <mxCell id="23" value="iban" style="text;html=1;strokeColor=none;fillColor=none;align=left;verticalAlign=middle;spacingLeft=4;spacingRight=4;overflow=hidden;rotatable=0;points=[[0,0.5],[1,0.5]];portConstraint=eastwest;" parent="20" vertex="1">
                    <mxGeometry y="100" width="140" height="30" as="geometry"/>
                </mxCell>
                <mxCell id="24" value="numeroCompte" style="text;html=1;strokeColor=none;fillColor=none;align=left;verticalAlign=middle;spacingLeft=4;spacingRight=4;overflow=hidden;rotatable=0;points=[[0,0.5],[1,0.5]];portConstraint=eastwest;" parent="20" vertex="1">
                    <mxGeometry y="130" width="140" height="30" as="geometry"/>
                </mxCell>
                <mxCell id="25" value="Client" style="swimlane;fontStyle=0;align=center;verticalAlign=top;childLayout=stackLayout;horizontal=1;startSize=40;horizontalStack=0;resizeParent=1;resizeParentMax=0;resizeLast=0;collapsible=0;marginBottom=0;html=1;" parent="1" vertex="1">
                    <mxGeometry x="600" y="440" width="140" height="160" as="geometry"/>
                </mxCell>
                <mxCell id="26" value="id" style="text;html=1;strokeColor=#001DBC;fillColor=#0050ef;align=left;verticalAlign=middle;spacingLeft=4;spacingRight=4;overflow=hidden;rotatable=0;points=[[0,0.5],[1,0.5]];portConstraint=eastwest;fontColor=#ffffff;" parent="25" vertex="1">
                    <mxGeometry y="40" width="140" height="30" as="geometry"/>
                </mxCell>
                <mxCell id="27" value="nom" style="text;html=1;strokeColor=none;fillColor=none;align=left;verticalAlign=middle;spacingLeft=4;spacingRight=4;overflow=hidden;rotatable=0;points=[[0,0.5],[1,0.5]];portConstraint=eastwest;" parent="25" vertex="1">
                    <mxGeometry y="70" width="140" height="30" as="geometry"/>
                </mxCell>
                <mxCell id="28" value="prenom" style="text;html=1;strokeColor=none;fillColor=none;align=left;verticalAlign=middle;spacingLeft=4;spacingRight=4;overflow=hidden;rotatable=0;points=[[0,0.5],[1,0.5]];portConstraint=eastwest;" parent="25" vertex="1">
                    <mxGeometry y="100" width="140" height="30" as="geometry"/>
                </mxCell>
                <mxCell id="29" value="adresse" style="text;html=1;strokeColor=none;fillColor=none;align=left;verticalAlign=middle;spacingLeft=4;spacingRight=4;overflow=hidden;rotatable=0;points=[[0,0.5],[1,0.5]];portConstraint=eastwest;" parent="25" vertex="1">
                    <mxGeometry y="130" width="140" height="30" as="geometry"/>
                </mxCell>
                <mxCell id="30" value="compteClient" style="swimlane;fontStyle=0;align=center;verticalAlign=top;childLayout=stackLayout;horizontal=1;startSize=40;horizontalStack=0;resizeParent=1;resizeParentMax=0;resizeLast=0;collapsible=0;marginBottom=0;html=1;" parent="1" vertex="1">
                    <mxGeometry x="325" y="460" width="140" height="160" as="geometry"/>
                </mxCell>
                <mxCell id="31" value="id" style="text;html=1;strokeColor=#001DBC;fillColor=#0050ef;align=left;verticalAlign=middle;spacingLeft=4;spacingRight=4;overflow=hidden;rotatable=0;points=[[0,0.5],[1,0.5]];portConstraint=eastwest;fontColor=#ffffff;" parent="30" vertex="1">
                    <mxGeometry y="40" width="140" height="30" as="geometry"/>
                </mxCell>
                <mxCell id="32" value="idCompte" style="text;html=1;strokeColor=#6F0000;fillColor=#a20025;align=left;verticalAlign=middle;spacingLeft=4;spacingRight=4;overflow=hidden;rotatable=0;points=[[0,0.5],[1,0.5]];portConstraint=eastwest;fontColor=#ffffff;" parent="30" vertex="1">
                    <mxGeometry y="70" width="140" height="30" as="geometry"/>
                </mxCell>
                <mxCell id="33" value="idClient" style="text;html=1;strokeColor=#6F0000;fillColor=#a20025;align=left;verticalAlign=middle;spacingLeft=4;spacingRight=4;overflow=hidden;rotatable=0;points=[[0,0.5],[1,0.5]];portConstraint=eastwest;fontColor=#ffffff;" parent="30" vertex="1">
                    <mxGeometry y="100" width="140" height="30" as="geometry"/>
                </mxCell>
                <mxCell id="34" value="dateCreation" style="text;html=1;strokeColor=none;fillColor=none;align=left;verticalAlign=middle;spacingLeft=4;spacingRight=4;overflow=hidden;rotatable=0;points=[[0,0.5],[1,0.5]];portConstraint=eastwest;" parent="30" vertex="1">
                    <mxGeometry y="130" width="140" height="30" as="geometry"/>
                </mxCell>
                <mxCell id="35" style="edgeStyle=none;html=1;exitX=1;exitY=0.5;exitDx=0;exitDy=0;fontSize=15;endArrow=none;endFill=0;entryX=-0.014;entryY=-0.1;entryDx=0;entryDy=0;entryPerimeter=0;" parent="1" source="22" target="33" edge="1">
                    <mxGeometry relative="1" as="geometry">
                        <mxPoint x="310" y="560" as="targetPoint"/>
                    </mxGeometry>
                </mxCell>
                <mxCell id="36" style="edgeStyle=none;html=1;exitX=0;exitY=0.5;exitDx=0;exitDy=0;entryX=0.993;entryY=0;entryDx=0;entryDy=0;entryPerimeter=0;fontSize=15;endArrow=none;endFill=0;" parent="1" source="27" target="33" edge="1">
                    <mxGeometry relative="1" as="geometry"/>
                </mxCell>
                <mxCell id="38" value="" style="shape=ellipse;container=1;horizontal=1;horizontalStack=0;resizeParent=1;resizeParentMax=0;resizeLast=0;html=1;dashed=0;collapsible=0;fontSize=15;" parent="1" vertex="1">
                    <mxGeometry x="330" y="205" width="130" height="70" as="geometry"/>
                </mxCell>
                <mxCell id="39" value="appartient" style="html=1;strokeColor=none;fillColor=none;align=center;verticalAlign=middle;rotatable=0;fontSize=15;" parent="38" vertex="1">
                    <mxGeometry width="130" height="17.5" as="geometry"/>
                </mxCell>
                <mxCell id="40" value="" style="line;strokeWidth=1;fillColor=none;rotatable=0;labelPosition=right;points=[];portConstraint=eastwest;dashed=0;resizeWidth=1;fontSize=15;" parent="38" vertex="1">
                    <mxGeometry x="6.5" y="17.5" width="117" height="5.833333333333332" as="geometry"/>
                </mxCell>
                <mxCell id="41" value="dateCreation" style="text;html=1;align=center;verticalAlign=middle;rotatable=0;fontSize=15;" parent="38" vertex="1">
                    <mxGeometry y="23.33333333333333" width="130" height="17.5" as="geometry"/>
                </mxCell>
            </root>
        </mxGraphModel>
    </diagram>
    <diagram id="ODupLLilMF2V6LQdq8tN" name="ex2">
        <mxGraphModel dx="1054" dy="609" grid="1" gridSize="10" guides="1" tooltips="1" connect="1" arrows="1" fold="1" page="1" pageScale="1" pageWidth="827" pageHeight="1169" math="0" shadow="0">
            <root>
                <mxCell id="y6wnHyTiRf1WpNL9HQrU-0"/>
                <mxCell id="y6wnHyTiRf1WpNL9HQrU-1" parent="y6wnHyTiRf1WpNL9HQrU-0"/>
                <mxCell id="y6wnHyTiRf1WpNL9HQrU-2" value="&lt;h1&gt;Exercice 2&lt;/h1&gt;&lt;p&gt;Dessinez le MCD et le MLD pour cette situation: plats qui contiennent des ingrédients&lt;/p&gt;" style="text;html=1;strokeColor=none;fillColor=none;spacing=5;spacingTop=-20;whiteSpace=wrap;overflow=hidden;rounded=0;" parent="y6wnHyTiRf1WpNL9HQrU-1" vertex="1">
                    <mxGeometry x="40" y="40" width="740" height="120" as="geometry"/>
                </mxCell>
                <mxCell id="y6wnHyTiRf1WpNL9HQrU-3" value="Plat" style="swimlane;fontStyle=0;align=center;verticalAlign=top;childLayout=stackLayout;horizontal=1;startSize=40;horizontalStack=0;resizeParent=1;resizeParentMax=0;resizeLast=0;collapsible=0;marginBottom=0;html=1;fontSize=15;" parent="y6wnHyTiRf1WpNL9HQrU-1" vertex="1">
                    <mxGeometry x="51" y="210" width="140" height="190" as="geometry"/>
                </mxCell>
                <mxCell id="y6wnHyTiRf1WpNL9HQrU-4" value="id" style="text;html=1;strokeColor=none;fillColor=none;align=left;verticalAlign=middle;spacingLeft=4;spacingRight=4;overflow=hidden;rotatable=0;points=[[0,0.5],[1,0.5]];portConstraint=eastwest;fontSize=15;" parent="y6wnHyTiRf1WpNL9HQrU-3" vertex="1">
                    <mxGeometry y="40" width="140" height="30" as="geometry"/>
                </mxCell>
                <mxCell id="y6wnHyTiRf1WpNL9HQrU-5" value="nom" style="text;html=1;strokeColor=none;fillColor=none;align=left;verticalAlign=middle;spacingLeft=4;spacingRight=4;overflow=hidden;rotatable=0;points=[[0,0.5],[1,0.5]];portConstraint=eastwest;fontSize=15;" parent="y6wnHyTiRf1WpNL9HQrU-3" vertex="1">
                    <mxGeometry y="70" width="140" height="30" as="geometry"/>
                </mxCell>
                <mxCell id="y6wnHyTiRf1WpNL9HQrU-6" value="vegetarien" style="text;html=1;strokeColor=none;fillColor=none;align=left;verticalAlign=middle;spacingLeft=4;spacingRight=4;overflow=hidden;rotatable=0;points=[[0,0.5],[1,0.5]];portConstraint=eastwest;fontSize=15;" parent="y6wnHyTiRf1WpNL9HQrU-3" vertex="1">
                    <mxGeometry y="100" width="140" height="30" as="geometry"/>
                </mxCell>
                <mxCell id="y6wnHyTiRf1WpNL9HQrU-7" value="calories" style="text;html=1;strokeColor=none;fillColor=none;align=left;verticalAlign=middle;spacingLeft=4;spacingRight=4;overflow=hidden;rotatable=0;points=[[0,0.5],[1,0.5]];portConstraint=eastwest;fontSize=15;" parent="y6wnHyTiRf1WpNL9HQrU-3" vertex="1">
                    <mxGeometry y="130" width="140" height="30" as="geometry"/>
                </mxCell>
                <mxCell id="y6wnHyTiRf1WpNL9HQrU-8" value="duree" style="text;html=1;strokeColor=none;fillColor=none;align=left;verticalAlign=middle;spacingLeft=4;spacingRight=4;overflow=hidden;rotatable=0;points=[[0,0.5],[1,0.5]];portConstraint=eastwest;fontSize=15;" parent="y6wnHyTiRf1WpNL9HQrU-3" vertex="1">
                    <mxGeometry y="160" width="140" height="30" as="geometry"/>
                </mxCell>
                <mxCell id="y6wnHyTiRf1WpNL9HQrU-9" value="Ingredient" style="swimlane;fontStyle=0;align=center;verticalAlign=top;childLayout=stackLayout;horizontal=1;startSize=40;horizontalStack=0;resizeParent=1;resizeParentMax=0;resizeLast=0;collapsible=0;marginBottom=0;html=1;fontSize=15;" parent="y6wnHyTiRf1WpNL9HQrU-1" vertex="1">
                    <mxGeometry x="621" y="210" width="140" height="130" as="geometry"/>
                </mxCell>
                <mxCell id="y6wnHyTiRf1WpNL9HQrU-10" value="id" style="text;html=1;strokeColor=none;fillColor=none;align=left;verticalAlign=middle;spacingLeft=4;spacingRight=4;overflow=hidden;rotatable=0;points=[[0,0.5],[1,0.5]];portConstraint=eastwest;fontSize=15;" parent="y6wnHyTiRf1WpNL9HQrU-9" vertex="1">
                    <mxGeometry y="40" width="140" height="30" as="geometry"/>
                </mxCell>
                <mxCell id="y6wnHyTiRf1WpNL9HQrU-11" value="nom" style="text;html=1;strokeColor=none;fillColor=none;align=left;verticalAlign=middle;spacingLeft=4;spacingRight=4;overflow=hidden;rotatable=0;points=[[0,0.5],[1,0.5]];portConstraint=eastwest;fontSize=15;" parent="y6wnHyTiRf1WpNL9HQrU-9" vertex="1">
                    <mxGeometry y="70" width="140" height="30" as="geometry"/>
                </mxCell>
                <mxCell id="y6wnHyTiRf1WpNL9HQrU-12" value="type" style="text;html=1;strokeColor=none;fillColor=none;align=left;verticalAlign=middle;spacingLeft=4;spacingRight=4;overflow=hidden;rotatable=0;points=[[0,0.5],[1,0.5]];portConstraint=eastwest;fontSize=15;" parent="y6wnHyTiRf1WpNL9HQrU-9" vertex="1">
                    <mxGeometry y="100" width="140" height="30" as="geometry"/>
                </mxCell>
                <mxCell id="y6wnHyTiRf1WpNL9HQrU-13" value="0,n" style="edgeStyle=none;html=1;exitX=1;exitY=0.5;exitDx=0;exitDy=0;entryX=0;entryY=0.5;entryDx=0;entryDy=0;fontSize=15;endArrow=none;endFill=0;" parent="y6wnHyTiRf1WpNL9HQrU-1" source="y6wnHyTiRf1WpNL9HQrU-4" target="y6wnHyTiRf1WpNL9HQrU-19" edge="1">
                    <mxGeometry relative="1" as="geometry">
                        <mxPoint x="363.5" y="252.5" as="targetPoint"/>
                    </mxGeometry>
                </mxCell>
                <mxCell id="y6wnHyTiRf1WpNL9HQrU-14" style="edgeStyle=none;html=1;exitX=0;exitY=0.5;exitDx=0;exitDy=0;entryX=1;entryY=1;entryDx=0;entryDy=0;fontSize=15;endArrow=none;endFill=0;" parent="y6wnHyTiRf1WpNL9HQrU-1" source="y6wnHyTiRf1WpNL9HQrU-10" target="y6wnHyTiRf1WpNL9HQrU-19" edge="1">
                    <mxGeometry relative="1" as="geometry">
                        <mxPoint x="478.5" y="252.5" as="targetPoint"/>
                    </mxGeometry>
                </mxCell>
                <mxCell id="y6wnHyTiRf1WpNL9HQrU-15" value="0,n" style="edgeLabel;html=1;align=center;verticalAlign=middle;resizable=0;points=[];fontSize=15;" parent="y6wnHyTiRf1WpNL9HQrU-14" vertex="1" connectable="0">
                    <mxGeometry x="0.2411" relative="1" as="geometry">
                        <mxPoint as="offset"/>
                    </mxGeometry>
                </mxCell>
                <mxCell id="y6wnHyTiRf1WpNL9HQrU-16" value="" style="shape=ellipse;container=1;horizontal=1;horizontalStack=0;resizeParent=1;resizeParentMax=0;resizeLast=0;html=1;dashed=0;collapsible=0;fontSize=15;" parent="y6wnHyTiRf1WpNL9HQrU-1" vertex="1">
                    <mxGeometry x="340" y="230" width="149" height="100" as="geometry"/>
                </mxCell>
                <mxCell id="y6wnHyTiRf1WpNL9HQrU-17" value="composé de" style="html=1;strokeColor=none;fillColor=none;align=center;verticalAlign=middle;rotatable=0;fontSize=15;" parent="y6wnHyTiRf1WpNL9HQrU-16" vertex="1">
                    <mxGeometry width="149" height="25" as="geometry"/>
                </mxCell>
                <mxCell id="y6wnHyTiRf1WpNL9HQrU-18" value="" style="line;strokeWidth=1;fillColor=none;rotatable=0;labelPosition=right;points=[];portConstraint=eastwest;dashed=0;resizeWidth=1;fontSize=15;" parent="y6wnHyTiRf1WpNL9HQrU-16" vertex="1">
                    <mxGeometry x="7.449999999999999" y="25" width="134.1" height="8.333333333333332" as="geometry"/>
                </mxCell>
                <mxCell id="y6wnHyTiRf1WpNL9HQrU-19" value="nombreIngredient" style="text;html=1;align=center;verticalAlign=middle;rotatable=0;fontSize=15;" parent="y6wnHyTiRf1WpNL9HQrU-16" vertex="1">
                    <mxGeometry y="33.33333333333333" width="149" height="25" as="geometry"/>
                </mxCell>
                <mxCell id="y6wnHyTiRf1WpNL9HQrU-20" value="&lt;b&gt;&lt;font style=&quot;font-size: 15px&quot;&gt;MLD&lt;/font&gt;&lt;/b&gt;" style="text;html=1;strokeColor=none;fillColor=none;align=center;verticalAlign=middle;whiteSpace=wrap;rounded=0;" parent="y6wnHyTiRf1WpNL9HQrU-1" vertex="1">
                    <mxGeometry x="41" y="449" width="60" height="30" as="geometry"/>
                </mxCell>
                <mxCell id="y6wnHyTiRf1WpNL9HQrU-21" value="Plat" style="swimlane;fontStyle=0;align=center;verticalAlign=top;childLayout=stackLayout;horizontal=1;startSize=40;horizontalStack=0;resizeParent=1;resizeParentMax=0;resizeLast=0;collapsible=0;marginBottom=0;html=1;" parent="y6wnHyTiRf1WpNL9HQrU-1" vertex="1">
                    <mxGeometry x="61" y="499" width="140" height="190" as="geometry"/>
                </mxCell>
                <mxCell id="y6wnHyTiRf1WpNL9HQrU-22" value="id" style="text;html=1;strokeColor=#001DBC;fillColor=#0050ef;align=left;verticalAlign=middle;spacingLeft=4;spacingRight=4;overflow=hidden;rotatable=0;points=[[0,0.5],[1,0.5]];portConstraint=eastwest;fontColor=#ffffff;" parent="y6wnHyTiRf1WpNL9HQrU-21" vertex="1">
                    <mxGeometry y="40" width="140" height="30" as="geometry"/>
                </mxCell>
                <mxCell id="y6wnHyTiRf1WpNL9HQrU-23" value="nom" style="text;html=1;strokeColor=none;fillColor=none;align=left;verticalAlign=middle;spacingLeft=4;spacingRight=4;overflow=hidden;rotatable=0;points=[[0,0.5],[1,0.5]];portConstraint=eastwest;" parent="y6wnHyTiRf1WpNL9HQrU-21" vertex="1">
                    <mxGeometry y="70" width="140" height="30" as="geometry"/>
                </mxCell>
                <mxCell id="y6wnHyTiRf1WpNL9HQrU-24" value="vegetarien" style="text;html=1;strokeColor=none;fillColor=none;align=left;verticalAlign=middle;spacingLeft=4;spacingRight=4;overflow=hidden;rotatable=0;points=[[0,0.5],[1,0.5]];portConstraint=eastwest;" parent="y6wnHyTiRf1WpNL9HQrU-21" vertex="1">
                    <mxGeometry y="100" width="140" height="30" as="geometry"/>
                </mxCell>
                <mxCell id="y6wnHyTiRf1WpNL9HQrU-25" value="calories" style="text;html=1;strokeColor=none;fillColor=none;align=left;verticalAlign=middle;spacingLeft=4;spacingRight=4;overflow=hidden;rotatable=0;points=[[0,0.5],[1,0.5]];portConstraint=eastwest;" parent="y6wnHyTiRf1WpNL9HQrU-21" vertex="1">
                    <mxGeometry y="130" width="140" height="30" as="geometry"/>
                </mxCell>
                <mxCell id="y6wnHyTiRf1WpNL9HQrU-26" value="duree" style="text;html=1;strokeColor=none;fillColor=none;align=left;verticalAlign=middle;spacingLeft=4;spacingRight=4;overflow=hidden;rotatable=0;points=[[0,0.5],[1,0.5]];portConstraint=eastwest;" parent="y6wnHyTiRf1WpNL9HQrU-21" vertex="1">
                    <mxGeometry y="160" width="140" height="30" as="geometry"/>
                </mxCell>
                <mxCell id="y6wnHyTiRf1WpNL9HQrU-27" value="Ingredient" style="swimlane;fontStyle=0;align=center;verticalAlign=top;childLayout=stackLayout;horizontal=1;startSize=40;horizontalStack=0;resizeParent=1;resizeParentMax=0;resizeLast=0;collapsible=0;marginBottom=0;html=1;" parent="y6wnHyTiRf1WpNL9HQrU-1" vertex="1">
                    <mxGeometry x="621" y="499" width="140" height="130" as="geometry"/>
                </mxCell>
                <mxCell id="y6wnHyTiRf1WpNL9HQrU-28" value="id" style="text;html=1;strokeColor=#001DBC;fillColor=#0050ef;align=left;verticalAlign=middle;spacingLeft=4;spacingRight=4;overflow=hidden;rotatable=0;points=[[0,0.5],[1,0.5]];portConstraint=eastwest;fontColor=#ffffff;" parent="y6wnHyTiRf1WpNL9HQrU-27" vertex="1">
                    <mxGeometry y="40" width="140" height="30" as="geometry"/>
                </mxCell>
                <mxCell id="y6wnHyTiRf1WpNL9HQrU-29" value="nom" style="text;html=1;strokeColor=none;fillColor=none;align=left;verticalAlign=middle;spacingLeft=4;spacingRight=4;overflow=hidden;rotatable=0;points=[[0,0.5],[1,0.5]];portConstraint=eastwest;" parent="y6wnHyTiRf1WpNL9HQrU-27" vertex="1">
                    <mxGeometry y="70" width="140" height="30" as="geometry"/>
                </mxCell>
                <mxCell id="y6wnHyTiRf1WpNL9HQrU-30" value="type" style="text;html=1;strokeColor=none;fillColor=none;align=left;verticalAlign=middle;spacingLeft=4;spacingRight=4;overflow=hidden;rotatable=0;points=[[0,0.5],[1,0.5]];portConstraint=eastwest;" parent="y6wnHyTiRf1WpNL9HQrU-27" vertex="1">
                    <mxGeometry y="100" width="140" height="30" as="geometry"/>
                </mxCell>
                <mxCell id="y6wnHyTiRf1WpNL9HQrU-31" value="ingredientPlat" style="swimlane;fontStyle=0;align=center;verticalAlign=top;childLayout=stackLayout;horizontal=1;startSize=40;horizontalStack=0;resizeParent=1;resizeParentMax=0;resizeLast=0;collapsible=0;marginBottom=0;html=1;" parent="y6wnHyTiRf1WpNL9HQrU-1" vertex="1">
                    <mxGeometry x="346" y="519" width="140" height="160" as="geometry"/>
                </mxCell>
                <mxCell id="y6wnHyTiRf1WpNL9HQrU-32" value="id" style="text;html=1;strokeColor=#001DBC;fillColor=#0050ef;align=left;verticalAlign=middle;spacingLeft=4;spacingRight=4;overflow=hidden;rotatable=0;points=[[0,0.5],[1,0.5]];portConstraint=eastwest;fontColor=#ffffff;" parent="y6wnHyTiRf1WpNL9HQrU-31" vertex="1">
                    <mxGeometry y="40" width="140" height="30" as="geometry"/>
                </mxCell>
                <mxCell id="y6wnHyTiRf1WpNL9HQrU-33" value="idPlat" style="text;html=1;strokeColor=#6F0000;fillColor=#a20025;align=left;verticalAlign=middle;spacingLeft=4;spacingRight=4;overflow=hidden;rotatable=0;points=[[0,0.5],[1,0.5]];portConstraint=eastwest;fontColor=#ffffff;" parent="y6wnHyTiRf1WpNL9HQrU-31" vertex="1">
                    <mxGeometry y="70" width="140" height="30" as="geometry"/>
                </mxCell>
                <mxCell id="y6wnHyTiRf1WpNL9HQrU-34" value="idIngredient" style="text;html=1;strokeColor=#6F0000;fillColor=#a20025;align=left;verticalAlign=middle;spacingLeft=4;spacingRight=4;overflow=hidden;rotatable=0;points=[[0,0.5],[1,0.5]];portConstraint=eastwest;fontColor=#ffffff;" parent="y6wnHyTiRf1WpNL9HQrU-31" vertex="1">
                    <mxGeometry y="100" width="140" height="30" as="geometry"/>
                </mxCell>
                <mxCell id="y6wnHyTiRf1WpNL9HQrU-35" value="nombreIngredient" style="text;html=1;strokeColor=none;fillColor=none;align=left;verticalAlign=middle;spacingLeft=4;spacingRight=4;overflow=hidden;rotatable=0;points=[[0,0.5],[1,0.5]];portConstraint=eastwest;" parent="y6wnHyTiRf1WpNL9HQrU-31" vertex="1">
                    <mxGeometry y="130" width="140" height="30" as="geometry"/>
                </mxCell>
                <mxCell id="y6wnHyTiRf1WpNL9HQrU-36" style="edgeStyle=none;html=1;exitX=1;exitY=0.5;exitDx=0;exitDy=0;fontSize=15;endArrow=none;endFill=0;entryX=-0.014;entryY=-0.1;entryDx=0;entryDy=0;entryPerimeter=0;" parent="y6wnHyTiRf1WpNL9HQrU-1" source="y6wnHyTiRf1WpNL9HQrU-23" target="y6wnHyTiRf1WpNL9HQrU-34" edge="1">
                    <mxGeometry relative="1" as="geometry">
                        <mxPoint x="331" y="619" as="targetPoint"/>
                    </mxGeometry>
                </mxCell>
                <mxCell id="y6wnHyTiRf1WpNL9HQrU-37" style="edgeStyle=none;html=1;exitX=0;exitY=0.5;exitDx=0;exitDy=0;entryX=0.993;entryY=0;entryDx=0;entryDy=0;entryPerimeter=0;fontSize=15;endArrow=none;endFill=0;" parent="y6wnHyTiRf1WpNL9HQrU-1" source="y6wnHyTiRf1WpNL9HQrU-29" target="y6wnHyTiRf1WpNL9HQrU-34" edge="1">
                    <mxGeometry relative="1" as="geometry"/>
                </mxCell>
            </root>
        </mxGraphModel>
    </diagram>
    <diagram id="9XYvh1akuCFtiGPkLPgm" name="ex3">
        <mxGraphModel dx="1054" dy="609" grid="1" gridSize="10" guides="1" tooltips="1" connect="1" arrows="1" fold="1" page="1" pageScale="1" pageWidth="827" pageHeight="1169" math="0" shadow="0">
            <root>
                <mxCell id="idXbFzq9L3Xpb22UvkUm-0"/>
                <mxCell id="idXbFzq9L3Xpb22UvkUm-1" parent="idXbFzq9L3Xpb22UvkUm-0"/>
                <mxCell id="idXbFzq9L3Xpb22UvkUm-2" value="&lt;b&gt;&lt;font style=&quot;font-size: 15px&quot;&gt;MCD&lt;/font&gt;&lt;/b&gt;" style="text;html=1;strokeColor=none;fillColor=none;align=center;verticalAlign=middle;whiteSpace=wrap;rounded=0;" parent="idXbFzq9L3Xpb22UvkUm-1" vertex="1">
                    <mxGeometry x="30" y="140" width="60" height="30" as="geometry"/>
                </mxCell>
                <mxCell id="idXbFzq9L3Xpb22UvkUm-3" value="Film" style="swimlane;fontStyle=0;align=center;verticalAlign=top;childLayout=stackLayout;horizontal=1;startSize=40;horizontalStack=0;resizeParent=1;resizeParentMax=0;resizeLast=0;collapsible=0;marginBottom=0;html=1;" parent="idXbFzq9L3Xpb22UvkUm-1" vertex="1">
                    <mxGeometry x="600" y="200" width="140" height="280" as="geometry"/>
                </mxCell>
                <mxCell id="idXbFzq9L3Xpb22UvkUm-4" value="id" style="text;html=1;strokeColor=none;fillColor=none;align=left;verticalAlign=middle;spacingLeft=4;spacingRight=4;overflow=hidden;rotatable=0;points=[[0,0.5],[1,0.5]];portConstraint=eastwest;" parent="idXbFzq9L3Xpb22UvkUm-3" vertex="1">
                    <mxGeometry y="40" width="140" height="30" as="geometry"/>
                </mxCell>
                <mxCell id="idXbFzq9L3Xpb22UvkUm-5" value="titre" style="text;html=1;strokeColor=none;fillColor=none;align=left;verticalAlign=middle;spacingLeft=4;spacingRight=4;overflow=hidden;rotatable=0;points=[[0,0.5],[1,0.5]];portConstraint=eastwest;" parent="idXbFzq9L3Xpb22UvkUm-3" vertex="1">
                    <mxGeometry y="70" width="140" height="30" as="geometry"/>
                </mxCell>
                <mxCell id="idXbFzq9L3Xpb22UvkUm-6" value="dateSortie" style="text;html=1;strokeColor=none;fillColor=none;align=left;verticalAlign=middle;spacingLeft=4;spacingRight=4;overflow=hidden;rotatable=0;points=[[0,0.5],[1,0.5]];portConstraint=eastwest;" parent="idXbFzq9L3Xpb22UvkUm-3" vertex="1">
                    <mxGeometry y="100" width="140" height="30" as="geometry"/>
                </mxCell>
                <mxCell id="idXbFzq9L3Xpb22UvkUm-7" value="genre" style="text;html=1;strokeColor=none;fillColor=none;align=left;verticalAlign=middle;spacingLeft=4;spacingRight=4;overflow=hidden;rotatable=0;points=[[0,0.5],[1,0.5]];portConstraint=eastwest;" parent="idXbFzq9L3Xpb22UvkUm-3" vertex="1">
                    <mxGeometry y="130" width="140" height="30" as="geometry"/>
                </mxCell>
                <mxCell id="idXbFzq9L3Xpb22UvkUm-8" value="duree" style="text;html=1;strokeColor=none;fillColor=none;align=left;verticalAlign=middle;spacingLeft=4;spacingRight=4;overflow=hidden;rotatable=0;points=[[0,0.5],[1,0.5]];portConstraint=eastwest;" parent="idXbFzq9L3Xpb22UvkUm-3" vertex="1">
                    <mxGeometry y="160" width="140" height="30" as="geometry"/>
                </mxCell>
                <mxCell id="idXbFzq9L3Xpb22UvkUm-9" value="dateSortie" style="text;html=1;strokeColor=none;fillColor=none;align=left;verticalAlign=middle;spacingLeft=4;spacingRight=4;overflow=hidden;rotatable=0;points=[[0,0.5],[1,0.5]];portConstraint=eastwest;" parent="idXbFzq9L3Xpb22UvkUm-3" vertex="1">
                    <mxGeometry y="190" width="140" height="30" as="geometry"/>
                </mxCell>
                <mxCell id="idXbFzq9L3Xpb22UvkUm-10" value="anneeProduction" style="text;html=1;strokeColor=none;fillColor=none;align=left;verticalAlign=middle;spacingLeft=4;spacingRight=4;overflow=hidden;rotatable=0;points=[[0,0.5],[1,0.5]];portConstraint=eastwest;" parent="idXbFzq9L3Xpb22UvkUm-3" vertex="1">
                    <mxGeometry y="220" width="140" height="30" as="geometry"/>
                </mxCell>
                <mxCell id="idXbFzq9L3Xpb22UvkUm-11" value="synopsis" style="text;html=1;strokeColor=none;fillColor=none;align=left;verticalAlign=middle;spacingLeft=4;spacingRight=4;overflow=hidden;rotatable=0;points=[[0,0.5],[1,0.5]];portConstraint=eastwest;" parent="idXbFzq9L3Xpb22UvkUm-3" vertex="1">
                    <mxGeometry y="250" width="140" height="30" as="geometry"/>
                </mxCell>
                <mxCell id="idXbFzq9L3Xpb22UvkUm-12" value="Realisateur" style="swimlane;fontStyle=0;align=center;verticalAlign=top;childLayout=stackLayout;horizontal=1;startSize=40;horizontalStack=0;resizeParent=1;resizeParentMax=0;resizeLast=0;collapsible=0;marginBottom=0;html=1;" parent="idXbFzq9L3Xpb22UvkUm-1" vertex="1">
                    <mxGeometry x="80" y="200" width="140" height="190" as="geometry"/>
                </mxCell>
                <mxCell id="idXbFzq9L3Xpb22UvkUm-13" value="id" style="text;html=1;strokeColor=none;fillColor=none;align=left;verticalAlign=middle;spacingLeft=4;spacingRight=4;overflow=hidden;rotatable=0;points=[[0,0.5],[1,0.5]];portConstraint=eastwest;" parent="idXbFzq9L3Xpb22UvkUm-12" vertex="1">
                    <mxGeometry y="40" width="140" height="30" as="geometry"/>
                </mxCell>
                <mxCell id="idXbFzq9L3Xpb22UvkUm-14" value="nom" style="text;html=1;strokeColor=none;fillColor=none;align=left;verticalAlign=middle;spacingLeft=4;spacingRight=4;overflow=hidden;rotatable=0;points=[[0,0.5],[1,0.5]];portConstraint=eastwest;" parent="idXbFzq9L3Xpb22UvkUm-12" vertex="1">
                    <mxGeometry y="70" width="140" height="30" as="geometry"/>
                </mxCell>
                <mxCell id="idXbFzq9L3Xpb22UvkUm-15" value="prenom" style="text;html=1;strokeColor=none;fillColor=none;align=left;verticalAlign=middle;spacingLeft=4;spacingRight=4;overflow=hidden;rotatable=0;points=[[0,0.5],[1,0.5]];portConstraint=eastwest;" parent="idXbFzq9L3Xpb22UvkUm-12" vertex="1">
                    <mxGeometry y="100" width="140" height="30" as="geometry"/>
                </mxCell>
                <mxCell id="idXbFzq9L3Xpb22UvkUm-16" value="genre" style="text;html=1;strokeColor=none;fillColor=none;align=left;verticalAlign=middle;spacingLeft=4;spacingRight=4;overflow=hidden;rotatable=0;points=[[0,0.5],[1,0.5]];portConstraint=eastwest;" parent="idXbFzq9L3Xpb22UvkUm-12" vertex="1">
                    <mxGeometry y="130" width="140" height="30" as="geometry"/>
                </mxCell>
                <mxCell id="idXbFzq9L3Xpb22UvkUm-17" value="nationalite" style="text;html=1;strokeColor=none;fillColor=none;align=left;verticalAlign=middle;spacingLeft=4;spacingRight=4;overflow=hidden;rotatable=0;points=[[0,0.5],[1,0.5]];portConstraint=eastwest;" parent="idXbFzq9L3Xpb22UvkUm-12" vertex="1">
                    <mxGeometry y="160" width="140" height="30" as="geometry"/>
                </mxCell>
                <mxCell id="idXbFzq9L3Xpb22UvkUm-18" value="réalise" style="ellipse;" parent="idXbFzq9L3Xpb22UvkUm-1" vertex="1">
                    <mxGeometry x="365" y="270" width="90" height="67.5" as="geometry"/>
                </mxCell>
                <mxCell id="idXbFzq9L3Xpb22UvkUm-19" style="edgeStyle=none;html=1;exitX=1;exitY=0.5;exitDx=0;exitDy=0;entryX=0;entryY=0.5;entryDx=0;entryDy=0;endArrow=none;endFill=0;" parent="idXbFzq9L3Xpb22UvkUm-1" source="idXbFzq9L3Xpb22UvkUm-15" target="idXbFzq9L3Xpb22UvkUm-18" edge="1">
                    <mxGeometry relative="1" as="geometry"/>
                </mxCell>
                <mxCell id="idXbFzq9L3Xpb22UvkUm-20" value="0,n" style="edgeLabel;html=1;align=center;verticalAlign=middle;resizable=0;points=[];" parent="idXbFzq9L3Xpb22UvkUm-19" vertex="1" connectable="0">
                    <mxGeometry x="-0.3513" relative="1" as="geometry">
                        <mxPoint as="offset"/>
                    </mxGeometry>
                </mxCell>
                <mxCell id="idXbFzq9L3Xpb22UvkUm-21" value="0,1" style="edgeStyle=none;html=1;exitX=0;exitY=0.5;exitDx=0;exitDy=0;entryX=1;entryY=0.5;entryDx=0;entryDy=0;endArrow=none;endFill=0;" parent="idXbFzq9L3Xpb22UvkUm-1" source="idXbFzq9L3Xpb22UvkUm-6" target="idXbFzq9L3Xpb22UvkUm-18" edge="1">
                    <mxGeometry relative="1" as="geometry"/>
                </mxCell>
                <mxCell id="idXbFzq9L3Xpb22UvkUm-22" value="&lt;b&gt;&lt;font style=&quot;font-size: 15px&quot;&gt;MLD&lt;/font&gt;&lt;/b&gt;" style="text;html=1;strokeColor=none;fillColor=none;align=center;verticalAlign=middle;whiteSpace=wrap;rounded=0;" parent="idXbFzq9L3Xpb22UvkUm-1" vertex="1">
                    <mxGeometry x="30" y="520" width="60" height="30" as="geometry"/>
                </mxCell>
                <mxCell id="idXbFzq9L3Xpb22UvkUm-23" value="Realisateur" style="swimlane;fontStyle=0;align=center;verticalAlign=top;childLayout=stackLayout;horizontal=1;startSize=40;horizontalStack=0;resizeParent=1;resizeParentMax=0;resizeLast=0;collapsible=0;marginBottom=0;html=1;" parent="idXbFzq9L3Xpb22UvkUm-1" vertex="1">
                    <mxGeometry x="80" y="600" width="140" height="190" as="geometry"/>
                </mxCell>
                <mxCell id="idXbFzq9L3Xpb22UvkUm-24" value="id" style="text;html=1;strokeColor=#001DBC;fillColor=#0050ef;align=left;verticalAlign=middle;spacingLeft=4;spacingRight=4;overflow=hidden;rotatable=0;points=[[0,0.5],[1,0.5]];portConstraint=eastwest;fontColor=#ffffff;" parent="idXbFzq9L3Xpb22UvkUm-23" vertex="1">
                    <mxGeometry y="40" width="140" height="30" as="geometry"/>
                </mxCell>
                <mxCell id="idXbFzq9L3Xpb22UvkUm-25" value="nom" style="text;html=1;strokeColor=none;fillColor=none;align=left;verticalAlign=middle;spacingLeft=4;spacingRight=4;overflow=hidden;rotatable=0;points=[[0,0.5],[1,0.5]];portConstraint=eastwest;" parent="idXbFzq9L3Xpb22UvkUm-23" vertex="1">
                    <mxGeometry y="70" width="140" height="30" as="geometry"/>
                </mxCell>
                <mxCell id="idXbFzq9L3Xpb22UvkUm-26" value="prenom" style="text;html=1;strokeColor=none;fillColor=none;align=left;verticalAlign=middle;spacingLeft=4;spacingRight=4;overflow=hidden;rotatable=0;points=[[0,0.5],[1,0.5]];portConstraint=eastwest;" parent="idXbFzq9L3Xpb22UvkUm-23" vertex="1">
                    <mxGeometry y="100" width="140" height="30" as="geometry"/>
                </mxCell>
                <mxCell id="idXbFzq9L3Xpb22UvkUm-27" value="genre" style="text;html=1;strokeColor=none;fillColor=none;align=left;verticalAlign=middle;spacingLeft=4;spacingRight=4;overflow=hidden;rotatable=0;points=[[0,0.5],[1,0.5]];portConstraint=eastwest;" parent="idXbFzq9L3Xpb22UvkUm-23" vertex="1">
                    <mxGeometry y="130" width="140" height="30" as="geometry"/>
                </mxCell>
                <mxCell id="idXbFzq9L3Xpb22UvkUm-28" value="nationalite" style="text;html=1;strokeColor=none;fillColor=none;align=left;verticalAlign=middle;spacingLeft=4;spacingRight=4;overflow=hidden;rotatable=0;points=[[0,0.5],[1,0.5]];portConstraint=eastwest;" parent="idXbFzq9L3Xpb22UvkUm-23" vertex="1">
                    <mxGeometry y="160" width="140" height="30" as="geometry"/>
                </mxCell>
                <mxCell id="idXbFzq9L3Xpb22UvkUm-29" value="Film" style="swimlane;fontStyle=0;align=center;verticalAlign=top;childLayout=stackLayout;horizontal=1;startSize=40;horizontalStack=0;resizeParent=1;resizeParentMax=0;resizeLast=0;collapsible=0;marginBottom=0;html=1;" parent="idXbFzq9L3Xpb22UvkUm-1" vertex="1">
                    <mxGeometry x="600" y="600" width="140" height="310" as="geometry"/>
                </mxCell>
                <mxCell id="idXbFzq9L3Xpb22UvkUm-30" value="id" style="text;html=1;strokeColor=#001DBC;fillColor=#0050ef;align=left;verticalAlign=middle;spacingLeft=4;spacingRight=4;overflow=hidden;rotatable=0;points=[[0,0.5],[1,0.5]];portConstraint=eastwest;fontColor=#ffffff;" parent="idXbFzq9L3Xpb22UvkUm-29" vertex="1">
                    <mxGeometry y="40" width="140" height="30" as="geometry"/>
                </mxCell>
                <mxCell id="idXbFzq9L3Xpb22UvkUm-31" value="titre" style="text;html=1;strokeColor=none;fillColor=none;align=left;verticalAlign=middle;spacingLeft=4;spacingRight=4;overflow=hidden;rotatable=0;points=[[0,0.5],[1,0.5]];portConstraint=eastwest;" parent="idXbFzq9L3Xpb22UvkUm-29" vertex="1">
                    <mxGeometry y="70" width="140" height="30" as="geometry"/>
                </mxCell>
                <mxCell id="idXbFzq9L3Xpb22UvkUm-32" value="dateSortie" style="text;html=1;strokeColor=none;fillColor=none;align=left;verticalAlign=middle;spacingLeft=4;spacingRight=4;overflow=hidden;rotatable=0;points=[[0,0.5],[1,0.5]];portConstraint=eastwest;" parent="idXbFzq9L3Xpb22UvkUm-29" vertex="1">
                    <mxGeometry y="100" width="140" height="30" as="geometry"/>
                </mxCell>
                <mxCell id="idXbFzq9L3Xpb22UvkUm-33" value="genre" style="text;html=1;strokeColor=none;fillColor=none;align=left;verticalAlign=middle;spacingLeft=4;spacingRight=4;overflow=hidden;rotatable=0;points=[[0,0.5],[1,0.5]];portConstraint=eastwest;" parent="idXbFzq9L3Xpb22UvkUm-29" vertex="1">
                    <mxGeometry y="130" width="140" height="30" as="geometry"/>
                </mxCell>
                <mxCell id="idXbFzq9L3Xpb22UvkUm-34" value="duree" style="text;html=1;strokeColor=none;fillColor=none;align=left;verticalAlign=middle;spacingLeft=4;spacingRight=4;overflow=hidden;rotatable=0;points=[[0,0.5],[1,0.5]];portConstraint=eastwest;" parent="idXbFzq9L3Xpb22UvkUm-29" vertex="1">
                    <mxGeometry y="160" width="140" height="30" as="geometry"/>
                </mxCell>
                <mxCell id="idXbFzq9L3Xpb22UvkUm-35" value="dateSortie" style="text;html=1;strokeColor=none;fillColor=none;align=left;verticalAlign=middle;spacingLeft=4;spacingRight=4;overflow=hidden;rotatable=0;points=[[0,0.5],[1,0.5]];portConstraint=eastwest;" parent="idXbFzq9L3Xpb22UvkUm-29" vertex="1">
                    <mxGeometry y="190" width="140" height="30" as="geometry"/>
                </mxCell>
                <mxCell id="idXbFzq9L3Xpb22UvkUm-36" value="anneeProduction" style="text;html=1;strokeColor=none;fillColor=none;align=left;verticalAlign=middle;spacingLeft=4;spacingRight=4;overflow=hidden;rotatable=0;points=[[0,0.5],[1,0.5]];portConstraint=eastwest;" parent="idXbFzq9L3Xpb22UvkUm-29" vertex="1">
                    <mxGeometry y="220" width="140" height="30" as="geometry"/>
                </mxCell>
                <mxCell id="idXbFzq9L3Xpb22UvkUm-37" value="synopsis" style="text;html=1;strokeColor=none;fillColor=none;align=left;verticalAlign=middle;spacingLeft=4;spacingRight=4;overflow=hidden;rotatable=0;points=[[0,0.5],[1,0.5]];portConstraint=eastwest;" parent="idXbFzq9L3Xpb22UvkUm-29" vertex="1">
                    <mxGeometry y="250" width="140" height="30" as="geometry"/>
                </mxCell>
                <mxCell id="idXbFzq9L3Xpb22UvkUm-38" value="idRealisateur" style="text;html=1;strokeColor=#6F0000;fillColor=#a20025;align=left;verticalAlign=middle;spacingLeft=4;spacingRight=4;overflow=hidden;rotatable=0;points=[[0,0.5],[1,0.5]];portConstraint=eastwest;fontColor=#ffffff;" parent="idXbFzq9L3Xpb22UvkUm-29" vertex="1">
                    <mxGeometry y="280" width="140" height="30" as="geometry"/>
                </mxCell>
                <mxCell id="idXbFzq9L3Xpb22UvkUm-39" style="edgeStyle=none;html=1;exitX=1;exitY=0.5;exitDx=0;exitDy=0;entryX=0;entryY=0.5;entryDx=0;entryDy=0;endArrow=none;endFill=0;" parent="idXbFzq9L3Xpb22UvkUm-1" source="idXbFzq9L3Xpb22UvkUm-26" target="idXbFzq9L3Xpb22UvkUm-32" edge="1">
                    <mxGeometry relative="1" as="geometry"/>
                </mxCell>
                <mxCell id="idXbFzq9L3Xpb22UvkUm-40" value="&lt;h1&gt;Exercice 3&lt;/h1&gt;&lt;p&gt;Dessinez le MCD et le MLD pour cette situation: films réalisés par un réalisateur (considérons un réalisateur par fillm)&lt;/p&gt;" style="text;html=1;strokeColor=none;fillColor=none;spacing=5;spacingTop=-20;whiteSpace=wrap;overflow=hidden;rounded=0;" parent="idXbFzq9L3Xpb22UvkUm-1" vertex="1">
                    <mxGeometry x="40" y="20" width="740" height="120" as="geometry"/>
                </mxCell>
            </root>
        </mxGraphModel>
    </diagram>
    <diagram id="_hXoG-JqQKHlvj0CWRzE" name="ex4">
        <mxGraphModel dx="883" dy="609" grid="1" gridSize="10" guides="1" tooltips="1" connect="1" arrows="1" fold="1" page="1" pageScale="1" pageWidth="827" pageHeight="1169" math="0" shadow="0">
            <root>
                <mxCell id="W9eet6uxWsuJXfC5HpP9-0"/>
                <mxCell id="W9eet6uxWsuJXfC5HpP9-1" parent="W9eet6uxWsuJXfC5HpP9-0"/>
                <mxCell id="W9eet6uxWsuJXfC5HpP9-2" value="&lt;h1&gt;Exercice 4&lt;/h1&gt;&lt;p&gt;Dessinez le MCD et le MLD pour cette situation: personnes qui habitent et qui louent des appartements au fur et à mesure dans le temps (un historique des résidences) et des appartements qu'une personne a loué dans sa vie. Un appartement peut être loué dans un temps T par plusieurs personnes mais aussi au court de sa vie d'appartement, sera loué par plusieurs personnes au total.&lt;/p&gt;" style="text;html=1;strokeColor=none;fillColor=none;spacing=5;spacingTop=-20;whiteSpace=wrap;overflow=hidden;rounded=0;" parent="W9eet6uxWsuJXfC5HpP9-1" vertex="1">
                    <mxGeometry x="40" y="40" width="740" height="120" as="geometry"/>
                </mxCell>
                <mxCell id="W9eet6uxWsuJXfC5HpP9-3" value="&lt;b&gt;&lt;font style=&quot;font-size: 15px&quot;&gt;MCD&lt;/font&gt;&lt;/b&gt;" style="text;html=1;strokeColor=none;fillColor=none;align=center;verticalAlign=middle;whiteSpace=wrap;rounded=0;" parent="W9eet6uxWsuJXfC5HpP9-1" vertex="1">
                    <mxGeometry x="31" y="160" width="60" height="30" as="geometry"/>
                </mxCell>
                <mxCell id="W9eet6uxWsuJXfC5HpP9-4" value="Personne" style="swimlane;fontStyle=0;align=center;verticalAlign=top;childLayout=stackLayout;horizontal=1;startSize=40;horizontalStack=0;resizeParent=1;resizeParentMax=0;resizeLast=0;collapsible=0;marginBottom=0;html=1;" parent="W9eet6uxWsuJXfC5HpP9-1" vertex="1">
                    <mxGeometry x="81" y="220" width="140" height="130" as="geometry"/>
                </mxCell>
                <mxCell id="W9eet6uxWsuJXfC5HpP9-5" value="id" style="text;html=1;strokeColor=none;fillColor=none;align=left;verticalAlign=middle;spacingLeft=4;spacingRight=4;overflow=hidden;rotatable=0;points=[[0,0.5],[1,0.5]];portConstraint=eastwest;" parent="W9eet6uxWsuJXfC5HpP9-4" vertex="1">
                    <mxGeometry y="40" width="140" height="30" as="geometry"/>
                </mxCell>
                <mxCell id="W9eet6uxWsuJXfC5HpP9-6" value="nom" style="text;html=1;strokeColor=none;fillColor=none;align=left;verticalAlign=middle;spacingLeft=4;spacingRight=4;overflow=hidden;rotatable=0;points=[[0,0.5],[1,0.5]];portConstraint=eastwest;" parent="W9eet6uxWsuJXfC5HpP9-4" vertex="1">
                    <mxGeometry y="70" width="140" height="30" as="geometry"/>
                </mxCell>
                <mxCell id="W9eet6uxWsuJXfC5HpP9-7" value="prenom" style="text;html=1;strokeColor=none;fillColor=none;align=left;verticalAlign=middle;spacingLeft=4;spacingRight=4;overflow=hidden;rotatable=0;points=[[0,0.5],[1,0.5]];portConstraint=eastwest;" parent="W9eet6uxWsuJXfC5HpP9-4" vertex="1">
                    <mxGeometry y="100" width="140" height="30" as="geometry"/>
                </mxCell>
                <mxCell id="W9eet6uxWsuJXfC5HpP9-8" value="Appartement" style="swimlane;fontStyle=0;align=center;verticalAlign=top;childLayout=stackLayout;horizontal=1;startSize=40;horizontalStack=0;resizeParent=1;resizeParentMax=0;resizeLast=0;collapsible=0;marginBottom=0;html=1;" parent="W9eet6uxWsuJXfC5HpP9-1" vertex="1">
                    <mxGeometry x="611" y="210" width="140" height="190" as="geometry"/>
                </mxCell>
                <mxCell id="W9eet6uxWsuJXfC5HpP9-9" value="id" style="text;html=1;strokeColor=none;fillColor=none;align=left;verticalAlign=middle;spacingLeft=4;spacingRight=4;overflow=hidden;rotatable=0;points=[[0,0.5],[1,0.5]];portConstraint=eastwest;" parent="W9eet6uxWsuJXfC5HpP9-8" vertex="1">
                    <mxGeometry y="40" width="140" height="30" as="geometry"/>
                </mxCell>
                <mxCell id="W9eet6uxWsuJXfC5HpP9-10" value="adresse" style="text;html=1;strokeColor=none;fillColor=none;align=left;verticalAlign=middle;spacingLeft=4;spacingRight=4;overflow=hidden;rotatable=0;points=[[0,0.5],[1,0.5]];portConstraint=eastwest;" parent="W9eet6uxWsuJXfC5HpP9-8" vertex="1">
                    <mxGeometry y="70" width="140" height="30" as="geometry"/>
                </mxCell>
                <mxCell id="W9eet6uxWsuJXfC5HpP9-11" value="nbChambres" style="text;html=1;strokeColor=none;fillColor=none;align=left;verticalAlign=middle;spacingLeft=4;spacingRight=4;overflow=hidden;rotatable=0;points=[[0,0.5],[1,0.5]];portConstraint=eastwest;" parent="W9eet6uxWsuJXfC5HpP9-8" vertex="1">
                    <mxGeometry y="100" width="140" height="30" as="geometry"/>
                </mxCell>
                <mxCell id="W9eet6uxWsuJXfC5HpP9-12" value="terasse" style="text;html=1;strokeColor=none;fillColor=none;align=left;verticalAlign=middle;spacingLeft=4;spacingRight=4;overflow=hidden;rotatable=0;points=[[0,0.5],[1,0.5]];portConstraint=eastwest;" parent="W9eet6uxWsuJXfC5HpP9-8" vertex="1">
                    <mxGeometry y="130" width="140" height="30" as="geometry"/>
                </mxCell>
                <mxCell id="W9eet6uxWsuJXfC5HpP9-13" value="surface" style="text;html=1;strokeColor=none;fillColor=none;align=left;verticalAlign=middle;spacingLeft=4;spacingRight=4;overflow=hidden;rotatable=0;points=[[0,0.5],[1,0.5]];portConstraint=eastwest;" parent="W9eet6uxWsuJXfC5HpP9-8" vertex="1">
                    <mxGeometry y="160" width="140" height="30" as="geometry"/>
                </mxCell>
                <mxCell id="W9eet6uxWsuJXfC5HpP9-14" value="" style="shape=ellipse;container=1;horizontal=1;horizontalStack=0;resizeParent=1;resizeParentMax=0;resizeLast=0;html=1;dashed=0;collapsible=0;" parent="W9eet6uxWsuJXfC5HpP9-1" vertex="1">
                    <mxGeometry x="281" y="170" width="240" height="150" as="geometry"/>
                </mxCell>
                <mxCell id="W9eet6uxWsuJXfC5HpP9-15" value="habite" style="html=1;strokeColor=none;fillColor=none;align=center;verticalAlign=middle;rotatable=0;" parent="W9eet6uxWsuJXfC5HpP9-14" vertex="1">
                    <mxGeometry y="10" width="240" height="37.5" as="geometry"/>
                </mxCell>
                <mxCell id="W9eet6uxWsuJXfC5HpP9-16" value="" style="line;strokeWidth=1;fillColor=none;rotatable=0;labelPosition=right;points=[];portConstraint=eastwest;dashed=0;resizeWidth=1;" parent="W9eet6uxWsuJXfC5HpP9-14" vertex="1">
                    <mxGeometry x="12" y="37.5" width="216" height="12.499999999999998" as="geometry"/>
                </mxCell>
                <mxCell id="W9eet6uxWsuJXfC5HpP9-17" value="dateDebutResidence" style="text;html=1;align=center;verticalAlign=middle;rotatable=0;" parent="W9eet6uxWsuJXfC5HpP9-14" vertex="1">
                    <mxGeometry y="49.999999999999986" width="240" height="37.5" as="geometry"/>
                </mxCell>
                <mxCell id="W9eet6uxWsuJXfC5HpP9-18" value="dateFinResidence" style="text;html=1;align=center;verticalAlign=middle;rotatable=0;" parent="W9eet6uxWsuJXfC5HpP9-14" vertex="1">
                    <mxGeometry y="80" width="240" height="37.5" as="geometry"/>
                </mxCell>
                <mxCell id="W9eet6uxWsuJXfC5HpP9-19" value="0,n" style="edgeStyle=none;html=1;exitX=1;exitY=0.5;exitDx=0;exitDy=0;entryX=0;entryY=0.75;entryDx=0;entryDy=0;endArrow=none;endFill=0;" parent="W9eet6uxWsuJXfC5HpP9-1" source="W9eet6uxWsuJXfC5HpP9-5" edge="1">
                    <mxGeometry relative="1" as="geometry">
                        <mxPoint x="281" y="248.125" as="targetPoint"/>
                    </mxGeometry>
                </mxCell>
                <mxCell id="W9eet6uxWsuJXfC5HpP9-20" value="0,n" style="edgeStyle=none;html=1;exitX=1;exitY=0.75;exitDx=0;exitDy=0;entryX=0;entryY=0.5;entryDx=0;entryDy=0;endArrow=none;endFill=0;" parent="W9eet6uxWsuJXfC5HpP9-1" target="W9eet6uxWsuJXfC5HpP9-10" edge="1">
                    <mxGeometry relative="1" as="geometry">
                        <mxPoint x="521" y="248.125" as="sourcePoint"/>
                    </mxGeometry>
                </mxCell>
                <mxCell id="W9eet6uxWsuJXfC5HpP9-21" value="" style="shape=ellipse;container=1;horizontal=1;horizontalStack=0;resizeParent=1;resizeParentMax=0;resizeLast=0;html=1;dashed=0;collapsible=0;" parent="W9eet6uxWsuJXfC5HpP9-1" vertex="1">
                    <mxGeometry x="309" y="355" width="180" height="155" as="geometry"/>
                </mxCell>
                <mxCell id="W9eet6uxWsuJXfC5HpP9-22" value="loue" style="html=1;strokeColor=none;fillColor=none;align=center;verticalAlign=middle;rotatable=0;" parent="W9eet6uxWsuJXfC5HpP9-21" vertex="1">
                    <mxGeometry width="180" height="38.75" as="geometry"/>
                </mxCell>
                <mxCell id="W9eet6uxWsuJXfC5HpP9-23" value="" style="line;strokeWidth=1;fillColor=none;rotatable=0;labelPosition=right;points=[];portConstraint=eastwest;dashed=0;resizeWidth=1;" parent="W9eet6uxWsuJXfC5HpP9-21" vertex="1">
                    <mxGeometry x="9" y="38.75" width="162" height="12.916666666666668" as="geometry"/>
                </mxCell>
                <mxCell id="W9eet6uxWsuJXfC5HpP9-24" value="prixLocation" style="text;html=1;align=center;verticalAlign=middle;rotatable=0;" parent="W9eet6uxWsuJXfC5HpP9-21" vertex="1">
                    <mxGeometry y="51.66666666666667" width="180" height="38.75" as="geometry"/>
                </mxCell>
                <mxCell id="W9eet6uxWsuJXfC5HpP9-25" value="dateDebutLocation" style="text;html=1;align=center;verticalAlign=middle;rotatable=0;" parent="W9eet6uxWsuJXfC5HpP9-21" vertex="1">
                    <mxGeometry y="77.49666666666667" width="180" height="38.75" as="geometry"/>
                </mxCell>
                <mxCell id="W9eet6uxWsuJXfC5HpP9-26" value="dateFinLocation" style="text;html=1;align=center;verticalAlign=middle;rotatable=0;" parent="W9eet6uxWsuJXfC5HpP9-21" vertex="1">
                    <mxGeometry y="104.99666666666667" width="180" height="38.75" as="geometry"/>
                </mxCell>
                <mxCell id="W9eet6uxWsuJXfC5HpP9-27" value="0,n" style="edgeStyle=none;html=1;exitX=1;exitY=0;exitDx=0;exitDy=0;entryX=0;entryY=0.5;entryDx=0;entryDy=0;endArrow=none;endFill=0;" parent="W9eet6uxWsuJXfC5HpP9-1" source="W9eet6uxWsuJXfC5HpP9-25" target="W9eet6uxWsuJXfC5HpP9-11" edge="1">
                    <mxGeometry relative="1" as="geometry"/>
                </mxCell>
                <mxCell id="W9eet6uxWsuJXfC5HpP9-28" value="Personne" style="swimlane;fontStyle=0;align=center;verticalAlign=top;childLayout=stackLayout;horizontal=1;startSize=40;horizontalStack=0;resizeParent=1;resizeParentMax=0;resizeLast=0;collapsible=0;marginBottom=0;html=1;" parent="W9eet6uxWsuJXfC5HpP9-1" vertex="1">
                    <mxGeometry x="40" y="702" width="180" height="130" as="geometry"/>
                </mxCell>
                <mxCell id="W9eet6uxWsuJXfC5HpP9-29" value="id" style="text;html=1;strokeColor=none;fillColor=none;align=left;verticalAlign=middle;spacingLeft=4;spacingRight=4;overflow=hidden;rotatable=0;points=[[0,0.5],[1,0.5]];portConstraint=eastwest;" parent="W9eet6uxWsuJXfC5HpP9-28" vertex="1">
                    <mxGeometry y="40" width="180" height="30" as="geometry"/>
                </mxCell>
                <mxCell id="W9eet6uxWsuJXfC5HpP9-30" value="nom" style="text;html=1;strokeColor=none;fillColor=none;align=left;verticalAlign=middle;spacingLeft=4;spacingRight=4;overflow=hidden;rotatable=0;points=[[0,0.5],[1,0.5]];portConstraint=eastwest;" parent="W9eet6uxWsuJXfC5HpP9-28" vertex="1">
                    <mxGeometry y="70" width="180" height="30" as="geometry"/>
                </mxCell>
                <mxCell id="W9eet6uxWsuJXfC5HpP9-31" value="prenom" style="text;html=1;strokeColor=none;fillColor=none;align=left;verticalAlign=middle;spacingLeft=4;spacingRight=4;overflow=hidden;rotatable=0;points=[[0,0.5],[1,0.5]];portConstraint=eastwest;" parent="W9eet6uxWsuJXfC5HpP9-28" vertex="1">
                    <mxGeometry y="100" width="180" height="30" as="geometry"/>
                </mxCell>
                <mxCell id="W9eet6uxWsuJXfC5HpP9-32" value="Appartement" style="swimlane;fontStyle=0;align=center;verticalAlign=top;childLayout=stackLayout;horizontal=1;startSize=40;horizontalStack=0;resizeParent=1;resizeParentMax=0;resizeLast=0;collapsible=0;marginBottom=0;html=1;" parent="W9eet6uxWsuJXfC5HpP9-1" vertex="1">
                    <mxGeometry x="600" y="722" width="180" height="190" as="geometry"/>
                </mxCell>
                <mxCell id="W9eet6uxWsuJXfC5HpP9-33" value="id" style="text;html=1;strokeColor=none;fillColor=none;align=left;verticalAlign=middle;spacingLeft=4;spacingRight=4;overflow=hidden;rotatable=0;points=[[0,0.5],[1,0.5]];portConstraint=eastwest;" parent="W9eet6uxWsuJXfC5HpP9-32" vertex="1">
                    <mxGeometry y="40" width="180" height="30" as="geometry"/>
                </mxCell>
                <mxCell id="W9eet6uxWsuJXfC5HpP9-34" value="adresse" style="text;html=1;strokeColor=none;fillColor=none;align=left;verticalAlign=middle;spacingLeft=4;spacingRight=4;overflow=hidden;rotatable=0;points=[[0,0.5],[1,0.5]];portConstraint=eastwest;" parent="W9eet6uxWsuJXfC5HpP9-32" vertex="1">
                    <mxGeometry y="70" width="180" height="30" as="geometry"/>
                </mxCell>
                <mxCell id="W9eet6uxWsuJXfC5HpP9-35" value="nbChambres" style="text;html=1;strokeColor=none;fillColor=none;align=left;verticalAlign=middle;spacingLeft=4;spacingRight=4;overflow=hidden;rotatable=0;points=[[0,0.5],[1,0.5]];portConstraint=eastwest;" parent="W9eet6uxWsuJXfC5HpP9-32" vertex="1">
                    <mxGeometry y="100" width="180" height="30" as="geometry"/>
                </mxCell>
                <mxCell id="W9eet6uxWsuJXfC5HpP9-36" value="terasse" style="text;html=1;strokeColor=none;fillColor=none;align=left;verticalAlign=middle;spacingLeft=4;spacingRight=4;overflow=hidden;rotatable=0;points=[[0,0.5],[1,0.5]];portConstraint=eastwest;" parent="W9eet6uxWsuJXfC5HpP9-32" vertex="1">
                    <mxGeometry y="130" width="180" height="30" as="geometry"/>
                </mxCell>
                <mxCell id="W9eet6uxWsuJXfC5HpP9-37" value="surface" style="text;html=1;strokeColor=none;fillColor=none;align=left;verticalAlign=middle;spacingLeft=4;spacingRight=4;overflow=hidden;rotatable=0;points=[[0,0.5],[1,0.5]];portConstraint=eastwest;" parent="W9eet6uxWsuJXfC5HpP9-32" vertex="1">
                    <mxGeometry y="160" width="180" height="30" as="geometry"/>
                </mxCell>
                <mxCell id="W9eet6uxWsuJXfC5HpP9-38" value="0,n" style="edgeStyle=none;html=1;exitX=1;exitY=0.5;exitDx=0;exitDy=0;entryX=0;entryY=0;entryDx=0;entryDy=0;endArrow=none;endFill=0;" parent="W9eet6uxWsuJXfC5HpP9-1" source="W9eet6uxWsuJXfC5HpP9-6" target="W9eet6uxWsuJXfC5HpP9-25" edge="1">
                    <mxGeometry relative="1" as="geometry"/>
                </mxCell>
                <mxCell id="W9eet6uxWsuJXfC5HpP9-39" value="Habitation" style="swimlane;fontStyle=0;align=center;verticalAlign=top;childLayout=stackLayout;horizontal=1;startSize=40;horizontalStack=0;resizeParent=1;resizeParentMax=0;resizeLast=0;collapsible=0;marginBottom=0;html=1;" parent="W9eet6uxWsuJXfC5HpP9-1" vertex="1">
                    <mxGeometry x="308" y="582" width="180" height="190" as="geometry"/>
                </mxCell>
                <mxCell id="W9eet6uxWsuJXfC5HpP9-40" value="id" style="text;html=1;strokeColor=#001DBC;fillColor=#0050ef;align=left;verticalAlign=middle;spacingLeft=4;spacingRight=4;overflow=hidden;rotatable=0;points=[[0,0.5],[1,0.5]];portConstraint=eastwest;fontColor=#ffffff;" parent="W9eet6uxWsuJXfC5HpP9-39" vertex="1">
                    <mxGeometry y="40" width="180" height="30" as="geometry"/>
                </mxCell>
                <mxCell id="W9eet6uxWsuJXfC5HpP9-41" value="dateDebutResidence" style="text;html=1;strokeColor=none;fillColor=none;align=left;verticalAlign=middle;spacingLeft=4;spacingRight=4;overflow=hidden;rotatable=0;points=[[0,0.5],[1,0.5]];portConstraint=eastwest;" parent="W9eet6uxWsuJXfC5HpP9-39" vertex="1">
                    <mxGeometry y="70" width="180" height="30" as="geometry"/>
                </mxCell>
                <mxCell id="W9eet6uxWsuJXfC5HpP9-42" value="dateFinResidence" style="text;html=1;strokeColor=none;fillColor=none;align=left;verticalAlign=middle;spacingLeft=4;spacingRight=4;overflow=hidden;rotatable=0;points=[[0,0.5],[1,0.5]];portConstraint=eastwest;" parent="W9eet6uxWsuJXfC5HpP9-39" vertex="1">
                    <mxGeometry y="100" width="180" height="30" as="geometry"/>
                </mxCell>
                <mxCell id="W9eet6uxWsuJXfC5HpP9-43" value="idPersonne" style="text;html=1;strokeColor=#6F0000;fillColor=#a20025;align=left;verticalAlign=middle;spacingLeft=4;spacingRight=4;overflow=hidden;rotatable=0;points=[[0,0.5],[1,0.5]];portConstraint=eastwest;fontColor=#ffffff;" parent="W9eet6uxWsuJXfC5HpP9-39" vertex="1">
                    <mxGeometry y="130" width="180" height="30" as="geometry"/>
                </mxCell>
                <mxCell id="W9eet6uxWsuJXfC5HpP9-44" value="idAppartement" style="text;html=1;strokeColor=#6F0000;fillColor=#a20025;align=left;verticalAlign=middle;spacingLeft=4;spacingRight=4;overflow=hidden;rotatable=0;points=[[0,0.5],[1,0.5]];portConstraint=eastwest;fontColor=#ffffff;" parent="W9eet6uxWsuJXfC5HpP9-39" vertex="1">
                    <mxGeometry y="160" width="180" height="30" as="geometry"/>
                </mxCell>
                <mxCell id="W9eet6uxWsuJXfC5HpP9-45" value="Location" style="swimlane;fontStyle=0;align=center;verticalAlign=top;childLayout=stackLayout;horizontal=1;startSize=40;horizontalStack=0;resizeParent=1;resizeParentMax=0;resizeLast=0;collapsible=0;marginBottom=0;html=1;" parent="W9eet6uxWsuJXfC5HpP9-1" vertex="1">
                    <mxGeometry x="310" y="832" width="180" height="220" as="geometry"/>
                </mxCell>
                <mxCell id="W9eet6uxWsuJXfC5HpP9-46" value="id" style="text;html=1;strokeColor=#001DBC;fillColor=#0050ef;align=left;verticalAlign=middle;spacingLeft=4;spacingRight=4;overflow=hidden;rotatable=0;points=[[0,0.5],[1,0.5]];portConstraint=eastwest;fontColor=#ffffff;" parent="W9eet6uxWsuJXfC5HpP9-45" vertex="1">
                    <mxGeometry y="40" width="180" height="30" as="geometry"/>
                </mxCell>
                <mxCell id="W9eet6uxWsuJXfC5HpP9-47" value="prixLocation" style="text;html=1;strokeColor=none;fillColor=none;align=left;verticalAlign=middle;spacingLeft=4;spacingRight=4;overflow=hidden;rotatable=0;points=[[0,0.5],[1,0.5]];portConstraint=eastwest;" parent="W9eet6uxWsuJXfC5HpP9-45" vertex="1">
                    <mxGeometry y="70" width="180" height="30" as="geometry"/>
                </mxCell>
                <mxCell id="W9eet6uxWsuJXfC5HpP9-48" value="dateLocation" style="text;html=1;strokeColor=none;fillColor=none;align=left;verticalAlign=middle;spacingLeft=4;spacingRight=4;overflow=hidden;rotatable=0;points=[[0,0.5],[1,0.5]];portConstraint=eastwest;" parent="W9eet6uxWsuJXfC5HpP9-45" vertex="1">
                    <mxGeometry y="100" width="180" height="30" as="geometry"/>
                </mxCell>
                <mxCell id="W9eet6uxWsuJXfC5HpP9-49" value="dateFinLocation" style="text;html=1;strokeColor=none;fillColor=none;align=left;verticalAlign=middle;spacingLeft=4;spacingRight=4;overflow=hidden;rotatable=0;points=[[0,0.5],[1,0.5]];portConstraint=eastwest;" parent="W9eet6uxWsuJXfC5HpP9-45" vertex="1">
                    <mxGeometry y="130" width="180" height="30" as="geometry"/>
                </mxCell>
                <mxCell id="W9eet6uxWsuJXfC5HpP9-50" value="idPersonne" style="text;html=1;strokeColor=#6F0000;fillColor=#a20025;align=left;verticalAlign=middle;spacingLeft=4;spacingRight=4;overflow=hidden;rotatable=0;points=[[0,0.5],[1,0.5]];portConstraint=eastwest;fontColor=#ffffff;" parent="W9eet6uxWsuJXfC5HpP9-45" vertex="1">
                    <mxGeometry y="160" width="180" height="30" as="geometry"/>
                </mxCell>
                <mxCell id="W9eet6uxWsuJXfC5HpP9-51" value="idAppartement" style="text;html=1;strokeColor=#6F0000;fillColor=#a20025;align=left;verticalAlign=middle;spacingLeft=4;spacingRight=4;overflow=hidden;rotatable=0;points=[[0,0.5],[1,0.5]];portConstraint=eastwest;fontColor=#ffffff;" parent="W9eet6uxWsuJXfC5HpP9-45" vertex="1">
                    <mxGeometry y="190" width="180" height="30" as="geometry"/>
                </mxCell>
                <mxCell id="W9eet6uxWsuJXfC5HpP9-52" style="edgeStyle=none;html=1;exitX=1;exitY=0.5;exitDx=0;exitDy=0;entryX=0;entryY=0.5;entryDx=0;entryDy=0;endArrow=none;endFill=0;" parent="W9eet6uxWsuJXfC5HpP9-1" source="W9eet6uxWsuJXfC5HpP9-29" target="W9eet6uxWsuJXfC5HpP9-41" edge="1">
                    <mxGeometry relative="1" as="geometry"/>
                </mxCell>
                <mxCell id="W9eet6uxWsuJXfC5HpP9-53" style="edgeStyle=none;html=1;exitX=1;exitY=0.5;exitDx=0;exitDy=0;entryX=0;entryY=0;entryDx=0;entryDy=0;entryPerimeter=0;endArrow=none;endFill=0;" parent="W9eet6uxWsuJXfC5HpP9-1" source="W9eet6uxWsuJXfC5HpP9-41" target="W9eet6uxWsuJXfC5HpP9-34" edge="1">
                    <mxGeometry relative="1" as="geometry"/>
                </mxCell>
                <mxCell id="W9eet6uxWsuJXfC5HpP9-54" style="edgeStyle=none;html=1;exitX=1;exitY=0.5;exitDx=0;exitDy=0;entryX=0;entryY=0.5;entryDx=0;entryDy=0;endArrow=none;endFill=0;" parent="W9eet6uxWsuJXfC5HpP9-1" source="W9eet6uxWsuJXfC5HpP9-30" target="W9eet6uxWsuJXfC5HpP9-49" edge="1">
                    <mxGeometry relative="1" as="geometry"/>
                </mxCell>
                <mxCell id="W9eet6uxWsuJXfC5HpP9-55" style="edgeStyle=none;html=1;exitX=1;exitY=0.5;exitDx=0;exitDy=0;entryX=0.006;entryY=0.733;entryDx=0;entryDy=0;entryPerimeter=0;endArrow=none;endFill=0;" parent="W9eet6uxWsuJXfC5HpP9-1" source="W9eet6uxWsuJXfC5HpP9-49" target="W9eet6uxWsuJXfC5HpP9-35" edge="1">
                    <mxGeometry relative="1" as="geometry"/>
                </mxCell>
                <mxCell id="W9eet6uxWsuJXfC5HpP9-56" value="&lt;b&gt;&lt;font style=&quot;font-size: 15px&quot;&gt;MLD&lt;/font&gt;&lt;/b&gt;" style="text;html=1;strokeColor=none;fillColor=none;align=center;verticalAlign=middle;whiteSpace=wrap;rounded=0;" parent="W9eet6uxWsuJXfC5HpP9-1" vertex="1">
                    <mxGeometry x="30" y="553" width="60" height="30" as="geometry"/>
                </mxCell>
            </root>
        </mxGraphModel>
    </diagram>
    <diagram id="ToLrYIrsSVL38QceQHal" name="ex5">
        <mxGraphModel dx="883" dy="609" grid="1" gridSize="10" guides="1" tooltips="1" connect="1" arrows="1" fold="1" page="1" pageScale="1" pageWidth="827" pageHeight="1169" math="0" shadow="0">
            <root>
                <mxCell id="OCUFGnjtweEphLizGnAR-0"/>
                <mxCell id="OCUFGnjtweEphLizGnAR-1" parent="OCUFGnjtweEphLizGnAR-0"/>
                <mxCell id="OCUFGnjtweEphLizGnAR-2" value="&lt;h1&gt;Exercice 5&lt;/h1&gt;&lt;p&gt;Dessinez le MCD et le MLD pour cette situation: clients d'un magasin online qui font des commandes&lt;/p&gt;" style="text;html=1;strokeColor=none;fillColor=none;spacing=5;spacingTop=-20;whiteSpace=wrap;overflow=hidden;rounded=0;" parent="OCUFGnjtweEphLizGnAR-1" vertex="1">
                    <mxGeometry x="40" y="40" width="740" height="120" as="geometry"/>
                </mxCell>
                <mxCell id="OCUFGnjtweEphLizGnAR-3" value="&lt;b&gt;&lt;font style=&quot;font-size: 15px&quot;&gt;MCD&lt;/font&gt;&lt;/b&gt;" style="text;html=1;strokeColor=none;fillColor=none;align=center;verticalAlign=middle;whiteSpace=wrap;rounded=0;" parent="OCUFGnjtweEphLizGnAR-1" vertex="1">
                    <mxGeometry x="31" y="160" width="60" height="30" as="geometry"/>
                </mxCell>
                <mxCell id="OCUFGnjtweEphLizGnAR-4" value="Client" style="swimlane;fontStyle=0;align=center;verticalAlign=top;childLayout=stackLayout;horizontal=1;startSize=40;horizontalStack=0;resizeParent=1;resizeParentMax=0;resizeLast=0;collapsible=0;marginBottom=0;html=1;fontSize=13;" parent="OCUFGnjtweEphLizGnAR-1" vertex="1">
                    <mxGeometry x="40" y="240" width="140" height="160" as="geometry"/>
                </mxCell>
                <mxCell id="OCUFGnjtweEphLizGnAR-5" value="id" style="text;html=1;strokeColor=none;fillColor=none;align=left;verticalAlign=middle;spacingLeft=4;spacingRight=4;overflow=hidden;rotatable=0;points=[[0,0.5],[1,0.5]];portConstraint=eastwest;fontSize=13;" parent="OCUFGnjtweEphLizGnAR-4" vertex="1">
                    <mxGeometry y="40" width="140" height="30" as="geometry"/>
                </mxCell>
                <mxCell id="OCUFGnjtweEphLizGnAR-6" value="nom" style="text;html=1;strokeColor=none;fillColor=none;align=left;verticalAlign=middle;spacingLeft=4;spacingRight=4;overflow=hidden;rotatable=0;points=[[0,0.5],[1,0.5]];portConstraint=eastwest;fontSize=13;" parent="OCUFGnjtweEphLizGnAR-4" vertex="1">
                    <mxGeometry y="70" width="140" height="30" as="geometry"/>
                </mxCell>
                <mxCell id="OCUFGnjtweEphLizGnAR-7" value="prenom" style="text;html=1;strokeColor=none;fillColor=none;align=left;verticalAlign=middle;spacingLeft=4;spacingRight=4;overflow=hidden;rotatable=0;points=[[0,0.5],[1,0.5]];portConstraint=eastwest;fontSize=13;" parent="OCUFGnjtweEphLizGnAR-4" vertex="1">
                    <mxGeometry y="100" width="140" height="30" as="geometry"/>
                </mxCell>
                <mxCell id="OCUFGnjtweEphLizGnAR-8" value="email" style="text;html=1;strokeColor=none;fillColor=none;align=left;verticalAlign=middle;spacingLeft=4;spacingRight=4;overflow=hidden;rotatable=0;points=[[0,0.5],[1,0.5]];portConstraint=eastwest;fontSize=13;" parent="OCUFGnjtweEphLizGnAR-4" vertex="1">
                    <mxGeometry y="130" width="140" height="30" as="geometry"/>
                </mxCell>
                <mxCell id="OCUFGnjtweEphLizGnAR-9" value="Commande" style="swimlane;fontStyle=0;align=center;verticalAlign=top;childLayout=stackLayout;horizontal=1;startSize=40;horizontalStack=0;resizeParent=1;resizeParentMax=0;resizeLast=0;collapsible=0;marginBottom=0;html=1;fontSize=13;" parent="OCUFGnjtweEphLizGnAR-1" vertex="1">
                    <mxGeometry x="630" y="240" width="140" height="190" as="geometry"/>
                </mxCell>
                <mxCell id="OCUFGnjtweEphLizGnAR-10" value="id" style="text;html=1;strokeColor=none;fillColor=none;align=left;verticalAlign=middle;spacingLeft=4;spacingRight=4;overflow=hidden;rotatable=0;points=[[0,0.5],[1,0.5]];portConstraint=eastwest;fontSize=13;" parent="OCUFGnjtweEphLizGnAR-9" vertex="1">
                    <mxGeometry y="40" width="140" height="30" as="geometry"/>
                </mxCell>
                <mxCell id="OCUFGnjtweEphLizGnAR-11" value="dateCommande" style="text;html=1;strokeColor=none;fillColor=none;align=left;verticalAlign=middle;spacingLeft=4;spacingRight=4;overflow=hidden;rotatable=0;points=[[0,0.5],[1,0.5]];portConstraint=eastwest;fontSize=13;" parent="OCUFGnjtweEphLizGnAR-9" vertex="1">
                    <mxGeometry y="70" width="140" height="30" as="geometry"/>
                </mxCell>
                <mxCell id="OCUFGnjtweEphLizGnAR-12" value="prix" style="text;html=1;strokeColor=none;fillColor=none;align=left;verticalAlign=middle;spacingLeft=4;spacingRight=4;overflow=hidden;rotatable=0;points=[[0,0.5],[1,0.5]];portConstraint=eastwest;fontSize=13;" parent="OCUFGnjtweEphLizGnAR-9" vertex="1">
                    <mxGeometry y="100" width="140" height="30" as="geometry"/>
                </mxCell>
                <mxCell id="OCUFGnjtweEphLizGnAR-13" value="dateLivraison" style="text;html=1;strokeColor=none;fillColor=none;align=left;verticalAlign=middle;spacingLeft=4;spacingRight=4;overflow=hidden;rotatable=0;points=[[0,0.5],[1,0.5]];portConstraint=eastwest;fontSize=13;" parent="OCUFGnjtweEphLizGnAR-9" vertex="1">
                    <mxGeometry y="130" width="140" height="30" as="geometry"/>
                </mxCell>
                <mxCell id="OCUFGnjtweEphLizGnAR-14" value="modePaiement" style="text;html=1;strokeColor=none;fillColor=none;align=left;verticalAlign=middle;spacingLeft=4;spacingRight=4;overflow=hidden;rotatable=0;points=[[0,0.5],[1,0.5]];portConstraint=eastwest;fontSize=13;" parent="OCUFGnjtweEphLizGnAR-9" vertex="1">
                    <mxGeometry y="160" width="140" height="30" as="geometry"/>
                </mxCell>
                <mxCell id="OCUFGnjtweEphLizGnAR-15" value="" style="shape=ellipse;container=1;horizontal=1;horizontalStack=0;resizeParent=1;resizeParentMax=0;resizeLast=0;html=1;dashed=0;collapsible=0;fontSize=13;" parent="OCUFGnjtweEphLizGnAR-1" vertex="1">
                    <mxGeometry x="324" y="280" width="180" height="50" as="geometry"/>
                </mxCell>
                <mxCell id="OCUFGnjtweEphLizGnAR-16" style="edgeStyle=none;html=1;exitX=1;exitY=0.5;exitDx=0;exitDy=0;entryX=0;entryY=0.25;entryDx=0;entryDy=0;fontSize=13;endArrow=none;endFill=0;" parent="OCUFGnjtweEphLizGnAR-1" source="OCUFGnjtweEphLizGnAR-6" target="OCUFGnjtweEphLizGnAR-19" edge="1">
                    <mxGeometry relative="1" as="geometry">
                        <mxPoint x="324.0000000000002" y="300" as="targetPoint"/>
                    </mxGeometry>
                </mxCell>
                <mxCell id="OCUFGnjtweEphLizGnAR-17" value="0,n" style="edgeLabel;html=1;align=center;verticalAlign=middle;resizable=0;points=[];fontSize=13;" parent="OCUFGnjtweEphLizGnAR-16" vertex="1" connectable="0">
                    <mxGeometry x="-0.1518" relative="1" as="geometry">
                        <mxPoint as="offset"/>
                    </mxGeometry>
                </mxCell>
                <mxCell id="OCUFGnjtweEphLizGnAR-18" value="1,1" style="edgeStyle=none;html=1;exitX=1;exitY=0.25;exitDx=0;exitDy=0;entryX=0;entryY=0.5;entryDx=0;entryDy=0;fontSize=13;endArrow=none;endFill=0;" parent="OCUFGnjtweEphLizGnAR-1" source="OCUFGnjtweEphLizGnAR-19" target="OCUFGnjtweEphLizGnAR-10" edge="1">
                    <mxGeometry relative="1" as="geometry">
                        <mxPoint x="504" y="300" as="sourcePoint"/>
                    </mxGeometry>
                </mxCell>
                <mxCell id="OCUFGnjtweEphLizGnAR-19" value="effectuer" style="html=1;strokeColor=none;fillColor=none;align=center;verticalAlign=middle;rotatable=0;fontSize=13;" parent="OCUFGnjtweEphLizGnAR-1" vertex="1">
                    <mxGeometry x="324" y="299" width="180" height="11.538461538461538" as="geometry"/>
                </mxCell>
                <mxCell id="OCUFGnjtweEphLizGnAR-20" value="Client" style="swimlane;fontStyle=0;align=center;verticalAlign=top;childLayout=stackLayout;horizontal=1;startSize=40;horizontalStack=0;resizeParent=1;resizeParentMax=0;resizeLast=0;collapsible=0;marginBottom=0;html=1;fontSize=13;" parent="OCUFGnjtweEphLizGnAR-1" vertex="1">
                    <mxGeometry x="40" y="580" width="140" height="160" as="geometry"/>
                </mxCell>
                <mxCell id="OCUFGnjtweEphLizGnAR-21" value="id" style="text;html=1;strokeColor=#001DBC;fillColor=#0050ef;align=left;verticalAlign=middle;spacingLeft=4;spacingRight=4;overflow=hidden;rotatable=0;points=[[0,0.5],[1,0.5]];portConstraint=eastwest;fontSize=13;fontColor=#ffffff;" parent="OCUFGnjtweEphLizGnAR-20" vertex="1">
                    <mxGeometry y="40" width="140" height="30" as="geometry"/>
                </mxCell>
                <mxCell id="OCUFGnjtweEphLizGnAR-22" value="nom" style="text;html=1;strokeColor=none;fillColor=none;align=left;verticalAlign=middle;spacingLeft=4;spacingRight=4;overflow=hidden;rotatable=0;points=[[0,0.5],[1,0.5]];portConstraint=eastwest;fontSize=13;" parent="OCUFGnjtweEphLizGnAR-20" vertex="1">
                    <mxGeometry y="70" width="140" height="30" as="geometry"/>
                </mxCell>
                <mxCell id="OCUFGnjtweEphLizGnAR-23" value="prenom" style="text;html=1;strokeColor=none;fillColor=none;align=left;verticalAlign=middle;spacingLeft=4;spacingRight=4;overflow=hidden;rotatable=0;points=[[0,0.5],[1,0.5]];portConstraint=eastwest;fontSize=13;" parent="OCUFGnjtweEphLizGnAR-20" vertex="1">
                    <mxGeometry y="100" width="140" height="30" as="geometry"/>
                </mxCell>
                <mxCell id="OCUFGnjtweEphLizGnAR-24" value="email" style="text;html=1;strokeColor=none;fillColor=none;align=left;verticalAlign=middle;spacingLeft=4;spacingRight=4;overflow=hidden;rotatable=0;points=[[0,0.5],[1,0.5]];portConstraint=eastwest;fontSize=13;" parent="OCUFGnjtweEphLizGnAR-20" vertex="1">
                    <mxGeometry y="130" width="140" height="30" as="geometry"/>
                </mxCell>
                <mxCell id="OCUFGnjtweEphLizGnAR-25" value="Commande" style="swimlane;fontStyle=0;align=center;verticalAlign=top;childLayout=stackLayout;horizontal=1;startSize=40;horizontalStack=0;resizeParent=1;resizeParentMax=0;resizeLast=0;collapsible=0;marginBottom=0;html=1;fontSize=13;" parent="OCUFGnjtweEphLizGnAR-1" vertex="1">
                    <mxGeometry x="600" y="560" width="140" height="220" as="geometry"/>
                </mxCell>
                <mxCell id="OCUFGnjtweEphLizGnAR-26" value="id" style="text;html=1;strokeColor=#001DBC;fillColor=#0050ef;align=left;verticalAlign=middle;spacingLeft=4;spacingRight=4;overflow=hidden;rotatable=0;points=[[0,0.5],[1,0.5]];portConstraint=eastwest;fontSize=13;fontColor=#ffffff;" parent="OCUFGnjtweEphLizGnAR-25" vertex="1">
                    <mxGeometry y="40" width="140" height="30" as="geometry"/>
                </mxCell>
                <mxCell id="OCUFGnjtweEphLizGnAR-27" value="dateCommande" style="text;html=1;strokeColor=none;fillColor=none;align=left;verticalAlign=middle;spacingLeft=4;spacingRight=4;overflow=hidden;rotatable=0;points=[[0,0.5],[1,0.5]];portConstraint=eastwest;fontSize=13;" parent="OCUFGnjtweEphLizGnAR-25" vertex="1">
                    <mxGeometry y="70" width="140" height="30" as="geometry"/>
                </mxCell>
                <mxCell id="OCUFGnjtweEphLizGnAR-28" value="prix" style="text;html=1;strokeColor=none;fillColor=none;align=left;verticalAlign=middle;spacingLeft=4;spacingRight=4;overflow=hidden;rotatable=0;points=[[0,0.5],[1,0.5]];portConstraint=eastwest;fontSize=13;" parent="OCUFGnjtweEphLizGnAR-25" vertex="1">
                    <mxGeometry y="100" width="140" height="30" as="geometry"/>
                </mxCell>
                <mxCell id="OCUFGnjtweEphLizGnAR-29" value="dateLivraison" style="text;html=1;strokeColor=none;fillColor=none;align=left;verticalAlign=middle;spacingLeft=4;spacingRight=4;overflow=hidden;rotatable=0;points=[[0,0.5],[1,0.5]];portConstraint=eastwest;fontSize=13;" parent="OCUFGnjtweEphLizGnAR-25" vertex="1">
                    <mxGeometry y="130" width="140" height="30" as="geometry"/>
                </mxCell>
                <mxCell id="OCUFGnjtweEphLizGnAR-30" value="modePaiement" style="text;html=1;strokeColor=none;fillColor=none;align=left;verticalAlign=middle;spacingLeft=4;spacingRight=4;overflow=hidden;rotatable=0;points=[[0,0.5],[1,0.5]];portConstraint=eastwest;fontSize=13;" parent="OCUFGnjtweEphLizGnAR-25" vertex="1">
                    <mxGeometry y="160" width="140" height="30" as="geometry"/>
                </mxCell>
                <mxCell id="OCUFGnjtweEphLizGnAR-31" value="idClient" style="text;html=1;strokeColor=#6F0000;fillColor=#a20025;align=left;verticalAlign=middle;spacingLeft=4;spacingRight=4;overflow=hidden;rotatable=0;points=[[0,0.5],[1,0.5]];portConstraint=eastwest;fontSize=13;fontColor=#ffffff;" parent="OCUFGnjtweEphLizGnAR-25" vertex="1">
                    <mxGeometry y="190" width="140" height="30" as="geometry"/>
                </mxCell>
                <mxCell id="OCUFGnjtweEphLizGnAR-32" style="edgeStyle=none;html=1;exitX=1;exitY=0.5;exitDx=0;exitDy=0;entryX=-0.007;entryY=0.033;entryDx=0;entryDy=0;entryPerimeter=0;fontSize=13;endArrow=none;endFill=0;" parent="OCUFGnjtweEphLizGnAR-1" source="OCUFGnjtweEphLizGnAR-22" target="OCUFGnjtweEphLizGnAR-28" edge="1">
                    <mxGeometry relative="1" as="geometry"/>
                </mxCell>
                <mxCell id="OCUFGnjtweEphLizGnAR-33" value="&lt;b&gt;&lt;font style=&quot;font-size: 15px&quot;&gt;MLD&lt;/font&gt;&lt;/b&gt;" style="text;html=1;strokeColor=none;fillColor=none;align=center;verticalAlign=middle;whiteSpace=wrap;rounded=0;" parent="OCUFGnjtweEphLizGnAR-1" vertex="1">
                    <mxGeometry x="31" y="480" width="60" height="30" as="geometry"/>
                </mxCell>
                <mxCell id="OCUFGnjtweEphLizGnAR-34" value="&lt;h1&gt;Exercice 5 Bis&lt;/h1&gt;&lt;p&gt;Dessinez le MCD et le MLD pour cette situation: clients d'un magasin online qui font des commandes, avec des articles&lt;/p&gt;" style="text;html=1;strokeColor=none;fillColor=none;spacing=5;spacingTop=-20;whiteSpace=wrap;overflow=hidden;rounded=0;" parent="OCUFGnjtweEphLizGnAR-1" vertex="1">
                    <mxGeometry x="49" y="900" width="740" height="120" as="geometry"/>
                </mxCell>
                <mxCell id="OCUFGnjtweEphLizGnAR-35" value="&lt;b&gt;&lt;font style=&quot;font-size: 15px&quot;&gt;MCD&lt;/font&gt;&lt;/b&gt;" style="text;html=1;strokeColor=none;fillColor=none;align=center;verticalAlign=middle;whiteSpace=wrap;rounded=0;" parent="OCUFGnjtweEphLizGnAR-1" vertex="1">
                    <mxGeometry x="40" y="1020" width="60" height="30" as="geometry"/>
                </mxCell>
                <mxCell id="OCUFGnjtweEphLizGnAR-36" value="Client" style="swimlane;fontStyle=0;align=center;verticalAlign=top;childLayout=stackLayout;horizontal=1;startSize=40;horizontalStack=0;resizeParent=1;resizeParentMax=0;resizeLast=0;collapsible=0;marginBottom=0;html=1;fontSize=13;" parent="OCUFGnjtweEphLizGnAR-1" vertex="1">
                    <mxGeometry x="40" y="1080" width="140" height="160" as="geometry"/>
                </mxCell>
                <mxCell id="OCUFGnjtweEphLizGnAR-37" value="id" style="text;html=1;strokeColor=none;fillColor=none;align=left;verticalAlign=middle;spacingLeft=4;spacingRight=4;overflow=hidden;rotatable=0;points=[[0,0.5],[1,0.5]];portConstraint=eastwest;fontSize=13;" parent="OCUFGnjtweEphLizGnAR-36" vertex="1">
                    <mxGeometry y="40" width="140" height="30" as="geometry"/>
                </mxCell>
                <mxCell id="OCUFGnjtweEphLizGnAR-38" value="nom" style="text;html=1;strokeColor=none;fillColor=none;align=left;verticalAlign=middle;spacingLeft=4;spacingRight=4;overflow=hidden;rotatable=0;points=[[0,0.5],[1,0.5]];portConstraint=eastwest;fontSize=13;" parent="OCUFGnjtweEphLizGnAR-36" vertex="1">
                    <mxGeometry y="70" width="140" height="30" as="geometry"/>
                </mxCell>
                <mxCell id="OCUFGnjtweEphLizGnAR-39" value="prenom" style="text;html=1;strokeColor=none;fillColor=none;align=left;verticalAlign=middle;spacingLeft=4;spacingRight=4;overflow=hidden;rotatable=0;points=[[0,0.5],[1,0.5]];portConstraint=eastwest;fontSize=13;" parent="OCUFGnjtweEphLizGnAR-36" vertex="1">
                    <mxGeometry y="100" width="140" height="30" as="geometry"/>
                </mxCell>
                <mxCell id="OCUFGnjtweEphLizGnAR-40" value="email" style="text;html=1;strokeColor=none;fillColor=none;align=left;verticalAlign=middle;spacingLeft=4;spacingRight=4;overflow=hidden;rotatable=0;points=[[0,0.5],[1,0.5]];portConstraint=eastwest;fontSize=13;" parent="OCUFGnjtweEphLizGnAR-36" vertex="1">
                    <mxGeometry y="130" width="140" height="30" as="geometry"/>
                </mxCell>
                <mxCell id="OCUFGnjtweEphLizGnAR-41" value="Commande" style="swimlane;fontStyle=0;align=center;verticalAlign=top;childLayout=stackLayout;horizontal=1;startSize=40;horizontalStack=0;resizeParent=1;resizeParentMax=0;resizeLast=0;collapsible=0;marginBottom=0;html=1;fontSize=13;" parent="OCUFGnjtweEphLizGnAR-1" vertex="1">
                    <mxGeometry x="400" y="1080" width="140" height="130" as="geometry"/>
                </mxCell>
                <mxCell id="OCUFGnjtweEphLizGnAR-42" value="id" style="text;html=1;strokeColor=none;fillColor=none;align=left;verticalAlign=middle;spacingLeft=4;spacingRight=4;overflow=hidden;rotatable=0;points=[[0,0.5],[1,0.5]];portConstraint=eastwest;fontSize=13;" parent="OCUFGnjtweEphLizGnAR-41" vertex="1">
                    <mxGeometry y="40" width="140" height="30" as="geometry"/>
                </mxCell>
                <mxCell id="OCUFGnjtweEphLizGnAR-43" value="dateCommande" style="text;html=1;strokeColor=none;fillColor=none;align=left;verticalAlign=middle;spacingLeft=4;spacingRight=4;overflow=hidden;rotatable=0;points=[[0,0.5],[1,0.5]];portConstraint=eastwest;fontSize=13;" parent="OCUFGnjtweEphLizGnAR-41" vertex="1">
                    <mxGeometry y="70" width="140" height="30" as="geometry"/>
                </mxCell>
                <mxCell id="OCUFGnjtweEphLizGnAR-44" value="modePaiement" style="text;html=1;strokeColor=none;fillColor=none;align=left;verticalAlign=middle;spacingLeft=4;spacingRight=4;overflow=hidden;rotatable=0;points=[[0,0.5],[1,0.5]];portConstraint=eastwest;fontSize=13;" parent="OCUFGnjtweEphLizGnAR-41" vertex="1">
                    <mxGeometry y="100" width="140" height="30" as="geometry"/>
                </mxCell>
                <mxCell id="OCUFGnjtweEphLizGnAR-45" value="" style="shape=ellipse;container=1;horizontal=1;horizontalStack=0;resizeParent=1;resizeParentMax=0;resizeLast=0;html=1;dashed=0;collapsible=0;fontSize=13;" parent="OCUFGnjtweEphLizGnAR-1" vertex="1">
                    <mxGeometry x="224" y="1150" width="100" height="50" as="geometry"/>
                </mxCell>
                <mxCell id="OCUFGnjtweEphLizGnAR-46" value="effectuer" style="html=1;strokeColor=none;fillColor=none;align=center;verticalAlign=middle;rotatable=0;fontSize=13;" parent="OCUFGnjtweEphLizGnAR-45" vertex="1">
                    <mxGeometry y="19.23" width="100" height="11.538461538461538" as="geometry"/>
                </mxCell>
                <mxCell id="OCUFGnjtweEphLizGnAR-47" style="edgeStyle=none;html=1;exitX=1;exitY=0.5;exitDx=0;exitDy=0;fontSize=13;endArrow=none;endFill=0;" parent="OCUFGnjtweEphLizGnAR-1" source="OCUFGnjtweEphLizGnAR-38" target="OCUFGnjtweEphLizGnAR-45" edge="1">
                    <mxGeometry relative="1" as="geometry">
                        <mxPoint x="333.0000000000002" y="1160" as="targetPoint"/>
                    </mxGeometry>
                </mxCell>
                <mxCell id="OCUFGnjtweEphLizGnAR-48" value="0,n" style="edgeLabel;html=1;align=center;verticalAlign=middle;resizable=0;points=[];fontSize=13;" parent="OCUFGnjtweEphLizGnAR-47" vertex="1" connectable="0">
                    <mxGeometry x="-0.1518" relative="1" as="geometry">
                        <mxPoint as="offset"/>
                    </mxGeometry>
                </mxCell>
                <mxCell id="OCUFGnjtweEphLizGnAR-49" value="1,1" style="edgeStyle=none;html=1;exitX=1;exitY=0.25;exitDx=0;exitDy=0;entryX=0;entryY=0.5;entryDx=0;entryDy=0;fontSize=13;endArrow=none;endFill=0;" parent="OCUFGnjtweEphLizGnAR-1" source="OCUFGnjtweEphLizGnAR-46" target="OCUFGnjtweEphLizGnAR-43" edge="1">
                    <mxGeometry relative="1" as="geometry">
                        <mxPoint x="513" y="1160" as="sourcePoint"/>
                    </mxGeometry>
                </mxCell>
                <mxCell id="OCUFGnjtweEphLizGnAR-50" value="Client" style="swimlane;fontStyle=0;align=center;verticalAlign=top;childLayout=stackLayout;horizontal=1;startSize=40;horizontalStack=0;resizeParent=1;resizeParentMax=0;resizeLast=0;collapsible=0;marginBottom=0;html=1;fontSize=13;" parent="OCUFGnjtweEphLizGnAR-1" vertex="1">
                    <mxGeometry x="60" y="1360" width="140" height="160" as="geometry"/>
                </mxCell>
                <mxCell id="OCUFGnjtweEphLizGnAR-51" value="id" style="text;html=1;strokeColor=#001DBC;fillColor=#0050ef;align=left;verticalAlign=middle;spacingLeft=4;spacingRight=4;overflow=hidden;rotatable=0;points=[[0,0.5],[1,0.5]];portConstraint=eastwest;fontSize=13;fontColor=#ffffff;" parent="OCUFGnjtweEphLizGnAR-50" vertex="1">
                    <mxGeometry y="40" width="140" height="30" as="geometry"/>
                </mxCell>
                <mxCell id="OCUFGnjtweEphLizGnAR-52" value="nom" style="text;html=1;strokeColor=none;fillColor=none;align=left;verticalAlign=middle;spacingLeft=4;spacingRight=4;overflow=hidden;rotatable=0;points=[[0,0.5],[1,0.5]];portConstraint=eastwest;fontSize=13;" parent="OCUFGnjtweEphLizGnAR-50" vertex="1">
                    <mxGeometry y="70" width="140" height="30" as="geometry"/>
                </mxCell>
                <mxCell id="OCUFGnjtweEphLizGnAR-53" value="prenom" style="text;html=1;strokeColor=none;fillColor=none;align=left;verticalAlign=middle;spacingLeft=4;spacingRight=4;overflow=hidden;rotatable=0;points=[[0,0.5],[1,0.5]];portConstraint=eastwest;fontSize=13;" parent="OCUFGnjtweEphLizGnAR-50" vertex="1">
                    <mxGeometry y="100" width="140" height="30" as="geometry"/>
                </mxCell>
                <mxCell id="OCUFGnjtweEphLizGnAR-54" value="email" style="text;html=1;strokeColor=none;fillColor=none;align=left;verticalAlign=middle;spacingLeft=4;spacingRight=4;overflow=hidden;rotatable=0;points=[[0,0.5],[1,0.5]];portConstraint=eastwest;fontSize=13;" parent="OCUFGnjtweEphLizGnAR-50" vertex="1">
                    <mxGeometry y="130" width="140" height="30" as="geometry"/>
                </mxCell>
                <mxCell id="OCUFGnjtweEphLizGnAR-55" value="Commande" style="swimlane;fontStyle=0;align=center;verticalAlign=top;childLayout=stackLayout;horizontal=1;startSize=40;horizontalStack=0;resizeParent=1;resizeParentMax=0;resizeLast=0;collapsible=0;marginBottom=0;html=1;fontSize=13;" parent="OCUFGnjtweEphLizGnAR-1" vertex="1">
                    <mxGeometry x="320" y="1360" width="140" height="160" as="geometry"/>
                </mxCell>
                <mxCell id="OCUFGnjtweEphLizGnAR-56" value="id" style="text;html=1;strokeColor=#001DBC;fillColor=#0050ef;align=left;verticalAlign=middle;spacingLeft=4;spacingRight=4;overflow=hidden;rotatable=0;points=[[0,0.5],[1,0.5]];portConstraint=eastwest;fontSize=13;fontColor=#ffffff;" parent="OCUFGnjtweEphLizGnAR-55" vertex="1">
                    <mxGeometry y="40" width="140" height="30" as="geometry"/>
                </mxCell>
                <mxCell id="OCUFGnjtweEphLizGnAR-57" value="dateCommande" style="text;html=1;strokeColor=none;fillColor=none;align=left;verticalAlign=middle;spacingLeft=4;spacingRight=4;overflow=hidden;rotatable=0;points=[[0,0.5],[1,0.5]];portConstraint=eastwest;fontSize=13;" parent="OCUFGnjtweEphLizGnAR-55" vertex="1">
                    <mxGeometry y="70" width="140" height="30" as="geometry"/>
                </mxCell>
                <mxCell id="OCUFGnjtweEphLizGnAR-58" value="modePaiement" style="text;html=1;strokeColor=none;fillColor=none;align=left;verticalAlign=middle;spacingLeft=4;spacingRight=4;overflow=hidden;rotatable=0;points=[[0,0.5],[1,0.5]];portConstraint=eastwest;fontSize=13;" parent="OCUFGnjtweEphLizGnAR-55" vertex="1">
                    <mxGeometry y="100" width="140" height="30" as="geometry"/>
                </mxCell>
                <mxCell id="OCUFGnjtweEphLizGnAR-59" value="idClient" style="text;html=1;strokeColor=#6F0000;fillColor=#a20025;align=left;verticalAlign=middle;spacingLeft=4;spacingRight=4;overflow=hidden;rotatable=0;points=[[0,0.5],[1,0.5]];portConstraint=eastwest;fontSize=13;fontColor=#ffffff;" parent="OCUFGnjtweEphLizGnAR-55" vertex="1">
                    <mxGeometry y="130" width="140" height="30" as="geometry"/>
                </mxCell>
                <mxCell id="OCUFGnjtweEphLizGnAR-60" value="&lt;b&gt;&lt;font style=&quot;font-size: 15px&quot;&gt;MLD&lt;/font&gt;&lt;/b&gt;" style="text;html=1;strokeColor=none;fillColor=none;align=center;verticalAlign=middle;whiteSpace=wrap;rounded=0;" parent="OCUFGnjtweEphLizGnAR-1" vertex="1">
                    <mxGeometry x="40" y="1290" width="60" height="30" as="geometry"/>
                </mxCell>
                <mxCell id="OCUFGnjtweEphLizGnAR-61" value="Article" style="swimlane;fontStyle=0;align=center;verticalAlign=top;childLayout=stackLayout;horizontal=1;startSize=40;horizontalStack=0;resizeParent=1;resizeParentMax=0;resizeLast=0;collapsible=0;marginBottom=0;html=1;fontSize=13;" parent="OCUFGnjtweEphLizGnAR-1" vertex="1">
                    <mxGeometry x="827" y="1080" width="140" height="220" as="geometry"/>
                </mxCell>
                <mxCell id="OCUFGnjtweEphLizGnAR-62" value="id" style="text;html=1;strokeColor=none;fillColor=none;align=left;verticalAlign=middle;spacingLeft=4;spacingRight=4;overflow=hidden;rotatable=0;points=[[0,0.5],[1,0.5]];portConstraint=eastwest;fontSize=13;" parent="OCUFGnjtweEphLizGnAR-61" vertex="1">
                    <mxGeometry y="40" width="140" height="30" as="geometry"/>
                </mxCell>
                <mxCell id="OCUFGnjtweEphLizGnAR-63" value="nom" style="text;html=1;strokeColor=none;fillColor=none;align=left;verticalAlign=middle;spacingLeft=4;spacingRight=4;overflow=hidden;rotatable=0;points=[[0,0.5],[1,0.5]];portConstraint=eastwest;fontSize=13;" parent="OCUFGnjtweEphLizGnAR-61" vertex="1">
                    <mxGeometry y="70" width="140" height="30" as="geometry"/>
                </mxCell>
                <mxCell id="OCUFGnjtweEphLizGnAR-64" value="prix" style="text;html=1;strokeColor=none;fillColor=none;align=left;verticalAlign=middle;spacingLeft=4;spacingRight=4;overflow=hidden;rotatable=0;points=[[0,0.5],[1,0.5]];portConstraint=eastwest;fontSize=13;" parent="OCUFGnjtweEphLizGnAR-61" vertex="1">
                    <mxGeometry y="100" width="140" height="30" as="geometry"/>
                </mxCell>
                <mxCell id="OCUFGnjtweEphLizGnAR-65" value="type" style="text;html=1;strokeColor=none;fillColor=none;align=left;verticalAlign=middle;spacingLeft=4;spacingRight=4;overflow=hidden;rotatable=0;points=[[0,0.5],[1,0.5]];portConstraint=eastwest;fontSize=13;" parent="OCUFGnjtweEphLizGnAR-61" vertex="1">
                    <mxGeometry y="130" width="140" height="30" as="geometry"/>
                </mxCell>
                <mxCell id="OCUFGnjtweEphLizGnAR-66" value="taille" style="text;html=1;strokeColor=none;fillColor=none;align=left;verticalAlign=middle;spacingLeft=4;spacingRight=4;overflow=hidden;rotatable=0;points=[[0,0.5],[1,0.5]];portConstraint=eastwest;fontSize=13;" parent="OCUFGnjtweEphLizGnAR-61" vertex="1">
                    <mxGeometry y="160" width="140" height="30" as="geometry"/>
                </mxCell>
                <mxCell id="OCUFGnjtweEphLizGnAR-67" value="couleur" style="text;html=1;strokeColor=none;fillColor=none;align=left;verticalAlign=middle;spacingLeft=4;spacingRight=4;overflow=hidden;rotatable=0;points=[[0,0.5],[1,0.5]];portConstraint=eastwest;fontSize=13;" parent="OCUFGnjtweEphLizGnAR-61" vertex="1">
                    <mxGeometry y="190" width="140" height="30" as="geometry"/>
                </mxCell>
                <mxCell id="OCUFGnjtweEphLizGnAR-68" value="" style="shape=ellipse;container=1;horizontal=1;horizontalStack=0;resizeParent=1;resizeParentMax=0;resizeLast=0;html=1;dashed=0;collapsible=0;fontSize=13;" parent="OCUFGnjtweEphLizGnAR-1" vertex="1">
                    <mxGeometry x="610" y="1130" width="140.00000000000003" height="100" as="geometry"/>
                </mxCell>
                <mxCell id="OCUFGnjtweEphLizGnAR-69" value="contient" style="html=1;strokeColor=none;fillColor=none;align=center;verticalAlign=middle;rotatable=0;fontSize=13;" parent="OCUFGnjtweEphLizGnAR-68" vertex="1">
                    <mxGeometry x="3.1054545454545455" width="136.89454545454547" height="25" as="geometry"/>
                </mxCell>
                <mxCell id="OCUFGnjtweEphLizGnAR-70" value="" style="line;strokeWidth=1;fillColor=none;rotatable=0;labelPosition=right;points=[];portConstraint=eastwest;dashed=0;resizeWidth=1;fontSize=13;" parent="OCUFGnjtweEphLizGnAR-68" vertex="1">
                    <mxGeometry x="7" y="25" width="126.00000000000001" height="8.333333333333334" as="geometry"/>
                </mxCell>
                <mxCell id="OCUFGnjtweEphLizGnAR-71" value="quantite" style="text;html=1;align=center;verticalAlign=middle;rotatable=0;fontSize=13;" parent="OCUFGnjtweEphLizGnAR-68" vertex="1">
                    <mxGeometry y="33.333333333333336" width="140.00000000000003" height="25" as="geometry"/>
                </mxCell>
                <mxCell id="OCUFGnjtweEphLizGnAR-72" value="dateLivraison" style="text;html=1;align=center;verticalAlign=middle;rotatable=0;fontSize=13;" parent="OCUFGnjtweEphLizGnAR-68" vertex="1">
                    <mxGeometry y="58.33333333333326" width="140.00000000000003" height="25" as="geometry"/>
                </mxCell>
                <mxCell id="OCUFGnjtweEphLizGnAR-73" value="1,n" style="edgeStyle=none;html=1;exitX=1;exitY=0.5;exitDx=0;exitDy=0;entryX=0;entryY=0.5;entryDx=0;entryDy=0;fontSize=13;endArrow=none;endFill=0;" parent="OCUFGnjtweEphLizGnAR-1" source="OCUFGnjtweEphLizGnAR-43" target="OCUFGnjtweEphLizGnAR-71" edge="1">
                    <mxGeometry relative="1" as="geometry"/>
                </mxCell>
                <mxCell id="OCUFGnjtweEphLizGnAR-74" style="edgeStyle=none;html=1;exitX=1;exitY=1;exitDx=0;exitDy=0;entryX=0;entryY=0.5;entryDx=0;entryDy=0;fontSize=13;endArrow=none;endFill=0;" parent="OCUFGnjtweEphLizGnAR-1" source="OCUFGnjtweEphLizGnAR-71" target="OCUFGnjtweEphLizGnAR-63" edge="1">
                    <mxGeometry relative="1" as="geometry"/>
                </mxCell>
                <mxCell id="OCUFGnjtweEphLizGnAR-75" value="0,n" style="edgeLabel;html=1;align=center;verticalAlign=middle;resizable=0;points=[];fontSize=13;" parent="OCUFGnjtweEphLizGnAR-74" vertex="1" connectable="0">
                    <mxGeometry x="-0.4731" y="-1" relative="1" as="geometry">
                        <mxPoint as="offset"/>
                    </mxGeometry>
                </mxCell>
                <mxCell id="OCUFGnjtweEphLizGnAR-76" value="Le minimum est 1, pas besoin de penser à une propriété nullable, car on aura pas dans la BD de commande sans que le client n'existe" style="text;html=1;strokeColor=none;fillColor=none;align=center;verticalAlign=middle;whiteSpace=wrap;rounded=0;" parent="OCUFGnjtweEphLizGnAR-1" vertex="1">
                    <mxGeometry x="488" y="330" width="130" height="100" as="geometry"/>
                </mxCell>
                <mxCell id="OCUFGnjtweEphLizGnAR-77" style="edgeStyle=none;html=1;exitX=1;exitY=0.5;exitDx=0;exitDy=0;entryX=0;entryY=0.5;entryDx=0;entryDy=0;endArrow=none;endFill=0;" parent="OCUFGnjtweEphLizGnAR-1" source="OCUFGnjtweEphLizGnAR-52" target="OCUFGnjtweEphLizGnAR-57" edge="1">
                    <mxGeometry relative="1" as="geometry"/>
                </mxCell>
                <mxCell id="OCUFGnjtweEphLizGnAR-78" value="articleCommande" style="swimlane;fontStyle=0;align=center;verticalAlign=top;childLayout=stackLayout;horizontal=1;startSize=40;horizontalStack=0;resizeParent=1;resizeParentMax=0;resizeLast=0;collapsible=0;marginBottom=0;html=1;fontSize=13;" parent="OCUFGnjtweEphLizGnAR-1" vertex="1">
                    <mxGeometry x="560" y="1360" width="140" height="190" as="geometry"/>
                </mxCell>
                <mxCell id="OCUFGnjtweEphLizGnAR-79" value="id" style="text;html=1;strokeColor=#001DBC;fillColor=#0050ef;align=left;verticalAlign=middle;spacingLeft=4;spacingRight=4;overflow=hidden;rotatable=0;points=[[0,0.5],[1,0.5]];portConstraint=eastwest;fontSize=13;fontColor=#ffffff;" parent="OCUFGnjtweEphLizGnAR-78" vertex="1">
                    <mxGeometry y="40" width="140" height="30" as="geometry"/>
                </mxCell>
                <mxCell id="OCUFGnjtweEphLizGnAR-80" value="quantite" style="text;html=1;align=left;verticalAlign=middle;spacingLeft=4;spacingRight=4;overflow=hidden;rotatable=0;points=[[0,0.5],[1,0.5]];portConstraint=eastwest;fontSize=13;" parent="OCUFGnjtweEphLizGnAR-78" vertex="1">
                    <mxGeometry y="70" width="140" height="30" as="geometry"/>
                </mxCell>
                <mxCell id="OCUFGnjtweEphLizGnAR-81" value="dateLivraison" style="text;html=1;align=left;verticalAlign=middle;spacingLeft=4;spacingRight=4;overflow=hidden;rotatable=0;points=[[0,0.5],[1,0.5]];portConstraint=eastwest;fontSize=13;" parent="OCUFGnjtweEphLizGnAR-78" vertex="1">
                    <mxGeometry y="100" width="140" height="30" as="geometry"/>
                </mxCell>
                <mxCell id="OCUFGnjtweEphLizGnAR-82" value="idCommande" style="text;html=1;strokeColor=#6F0000;fillColor=#a20025;align=left;verticalAlign=middle;spacingLeft=4;spacingRight=4;overflow=hidden;rotatable=0;points=[[0,0.5],[1,0.5]];portConstraint=eastwest;fontSize=13;fontColor=#ffffff;" parent="OCUFGnjtweEphLizGnAR-78" vertex="1">
                    <mxGeometry y="130" width="140" height="30" as="geometry"/>
                </mxCell>
                <mxCell id="OCUFGnjtweEphLizGnAR-83" value="idArticle" style="text;html=1;strokeColor=#6F0000;fillColor=#a20025;align=left;verticalAlign=middle;spacingLeft=4;spacingRight=4;overflow=hidden;rotatable=0;points=[[0,0.5],[1,0.5]];portConstraint=eastwest;fontSize=13;fontColor=#ffffff;" parent="OCUFGnjtweEphLizGnAR-78" vertex="1">
                    <mxGeometry y="160" width="140" height="30" as="geometry"/>
                </mxCell>
                <mxCell id="OCUFGnjtweEphLizGnAR-84" value="Article" style="swimlane;fontStyle=0;align=center;verticalAlign=top;childLayout=stackLayout;horizontal=1;startSize=40;horizontalStack=0;resizeParent=1;resizeParentMax=0;resizeLast=0;collapsible=0;marginBottom=0;html=1;fontSize=13;" parent="OCUFGnjtweEphLizGnAR-1" vertex="1">
                    <mxGeometry x="827" y="1360" width="140" height="220" as="geometry"/>
                </mxCell>
                <mxCell id="OCUFGnjtweEphLizGnAR-85" value="id" style="text;html=1;strokeColor=#001DBC;fillColor=#0050ef;align=left;verticalAlign=middle;spacingLeft=4;spacingRight=4;overflow=hidden;rotatable=0;points=[[0,0.5],[1,0.5]];portConstraint=eastwest;fontSize=13;fontColor=#ffffff;" parent="OCUFGnjtweEphLizGnAR-84" vertex="1">
                    <mxGeometry y="40" width="140" height="30" as="geometry"/>
                </mxCell>
                <mxCell id="OCUFGnjtweEphLizGnAR-86" value="nom" style="text;html=1;strokeColor=none;fillColor=none;align=left;verticalAlign=middle;spacingLeft=4;spacingRight=4;overflow=hidden;rotatable=0;points=[[0,0.5],[1,0.5]];portConstraint=eastwest;fontSize=13;" parent="OCUFGnjtweEphLizGnAR-84" vertex="1">
                    <mxGeometry y="70" width="140" height="30" as="geometry"/>
                </mxCell>
                <mxCell id="OCUFGnjtweEphLizGnAR-87" value="prix" style="text;html=1;strokeColor=none;fillColor=none;align=left;verticalAlign=middle;spacingLeft=4;spacingRight=4;overflow=hidden;rotatable=0;points=[[0,0.5],[1,0.5]];portConstraint=eastwest;fontSize=13;" parent="OCUFGnjtweEphLizGnAR-84" vertex="1">
                    <mxGeometry y="100" width="140" height="30" as="geometry"/>
                </mxCell>
                <mxCell id="OCUFGnjtweEphLizGnAR-88" value="type" style="text;html=1;strokeColor=none;fillColor=none;align=left;verticalAlign=middle;spacingLeft=4;spacingRight=4;overflow=hidden;rotatable=0;points=[[0,0.5],[1,0.5]];portConstraint=eastwest;fontSize=13;" parent="OCUFGnjtweEphLizGnAR-84" vertex="1">
                    <mxGeometry y="130" width="140" height="30" as="geometry"/>
                </mxCell>
                <mxCell id="OCUFGnjtweEphLizGnAR-89" value="taille" style="text;html=1;strokeColor=none;fillColor=none;align=left;verticalAlign=middle;spacingLeft=4;spacingRight=4;overflow=hidden;rotatable=0;points=[[0,0.5],[1,0.5]];portConstraint=eastwest;fontSize=13;" parent="OCUFGnjtweEphLizGnAR-84" vertex="1">
                    <mxGeometry y="160" width="140" height="30" as="geometry"/>
                </mxCell>
                <mxCell id="OCUFGnjtweEphLizGnAR-90" value="couleur" style="text;html=1;strokeColor=none;fillColor=none;align=left;verticalAlign=middle;spacingLeft=4;spacingRight=4;overflow=hidden;rotatable=0;points=[[0,0.5],[1,0.5]];portConstraint=eastwest;fontSize=13;" parent="OCUFGnjtweEphLizGnAR-84" vertex="1">
                    <mxGeometry y="190" width="140" height="30" as="geometry"/>
                </mxCell>
                <mxCell id="OCUFGnjtweEphLizGnAR-91" style="edgeStyle=none;html=1;exitX=1;exitY=0.5;exitDx=0;exitDy=0;entryX=0;entryY=0.5;entryDx=0;entryDy=0;endArrow=none;endFill=0;" parent="OCUFGnjtweEphLizGnAR-1" source="OCUFGnjtweEphLizGnAR-57" edge="1">
                    <mxGeometry relative="1" as="geometry">
                        <mxPoint x="560" y="1445" as="targetPoint"/>
                    </mxGeometry>
                </mxCell>
                <mxCell id="OCUFGnjtweEphLizGnAR-92" style="edgeStyle=none;html=1;exitX=1;exitY=0.5;exitDx=0;exitDy=0;entryX=0;entryY=0.5;entryDx=0;entryDy=0;endArrow=none;endFill=0;" parent="OCUFGnjtweEphLizGnAR-1" target="OCUFGnjtweEphLizGnAR-86" edge="1">
                    <mxGeometry relative="1" as="geometry">
                        <mxPoint x="700.0000000000002" y="1445" as="sourcePoint"/>
                    </mxGeometry>
                </mxCell>
            </root>
        </mxGraphModel>
    </diagram>
    <diagram id="bb9a2LBg2cOpE9q1Lbj3" name="ex6">
        <mxGraphModel dx="883" dy="609" grid="1" gridSize="10" guides="1" tooltips="1" connect="1" arrows="1" fold="1" page="1" pageScale="1" pageWidth="827" pageHeight="1169" math="0" shadow="0">
            <root>
                <mxCell id="45O4lD2CLwNiYDrFNKsz-0"/>
                <mxCell id="45O4lD2CLwNiYDrFNKsz-1" parent="45O4lD2CLwNiYDrFNKsz-0"/>
                <mxCell id="45O4lD2CLwNiYDrFNKsz-2" value="&lt;h1&gt;Exercice 6&lt;/h1&gt;&lt;p&gt;Dessinez le MCD et le MLD pour cette situation: employés supervisés par d'autres employés&lt;/p&gt;" style="text;html=1;strokeColor=none;fillColor=none;spacing=5;spacingTop=-20;whiteSpace=wrap;overflow=hidden;rounded=0;" parent="45O4lD2CLwNiYDrFNKsz-1" vertex="1">
                    <mxGeometry x="40" y="40" width="740" height="120" as="geometry"/>
                </mxCell>
                <mxCell id="45O4lD2CLwNiYDrFNKsz-3" value="&lt;b&gt;&lt;font style=&quot;font-size: 15px&quot;&gt;MCD&lt;/font&gt;&lt;/b&gt;" style="text;html=1;strokeColor=none;fillColor=none;align=center;verticalAlign=middle;whiteSpace=wrap;rounded=0;" parent="45O4lD2CLwNiYDrFNKsz-1" vertex="1">
                    <mxGeometry x="31" y="160" width="60" height="30" as="geometry"/>
                </mxCell>
                <mxCell id="45O4lD2CLwNiYDrFNKsz-4" value="Employe" style="swimlane;fontStyle=1;align=center;verticalAlign=middle;childLayout=stackLayout;horizontal=1;startSize=29;horizontalStack=0;resizeParent=1;resizeParentMax=0;resizeLast=0;collapsible=0;marginBottom=0;html=1;" parent="45O4lD2CLwNiYDrFNKsz-1" vertex="1">
                    <mxGeometry x="120" y="200" width="140" height="129" as="geometry"/>
                </mxCell>
                <mxCell id="45O4lD2CLwNiYDrFNKsz-5" value="id" style="text;html=1;strokeColor=none;fillColor=none;align=center;verticalAlign=middle;spacingLeft=4;spacingRight=4;overflow=hidden;rotatable=0;points=[[0,0.5],[1,0.5]];portConstraint=eastwest;" parent="45O4lD2CLwNiYDrFNKsz-4" vertex="1">
                    <mxGeometry y="29" width="140" height="25" as="geometry"/>
                </mxCell>
                <mxCell id="45O4lD2CLwNiYDrFNKsz-7" value="nom" style="text;html=1;strokeColor=none;fillColor=none;align=center;verticalAlign=middle;spacingLeft=4;spacingRight=4;overflow=hidden;rotatable=0;points=[[0,0.5],[1,0.5]];portConstraint=eastwest;" parent="45O4lD2CLwNiYDrFNKsz-4" vertex="1">
                    <mxGeometry y="54" width="140" height="25" as="geometry"/>
                </mxCell>
                <mxCell id="45O4lD2CLwNiYDrFNKsz-8" value="prenom" style="text;html=1;strokeColor=none;fillColor=none;align=center;verticalAlign=middle;spacingLeft=4;spacingRight=4;overflow=hidden;rotatable=0;points=[[0,0.5],[1,0.5]];portConstraint=eastwest;" parent="45O4lD2CLwNiYDrFNKsz-4" vertex="1">
                    <mxGeometry y="79" width="140" height="25" as="geometry"/>
                </mxCell>
                <mxCell id="45O4lD2CLwNiYDrFNKsz-10" value="email" style="text;html=1;strokeColor=none;fillColor=none;align=center;verticalAlign=middle;spacingLeft=4;spacingRight=4;overflow=hidden;rotatable=0;points=[[0,0.5],[1,0.5]];portConstraint=eastwest;" parent="45O4lD2CLwNiYDrFNKsz-4" vertex="1">
                    <mxGeometry y="104" width="140" height="25" as="geometry"/>
                </mxCell>
                <mxCell id="45O4lD2CLwNiYDrFNKsz-12" value="supervisé" style="edgeStyle=none;html=1;exitX=0.5;exitY=1;exitDx=0;exitDy=0;entryX=0.582;entryY=1.04;entryDx=0;entryDy=0;entryPerimeter=0;endArrow=none;endFill=0;" parent="45O4lD2CLwNiYDrFNKsz-1" source="45O4lD2CLwNiYDrFNKsz-9" target="45O4lD2CLwNiYDrFNKsz-10" edge="1">
                    <mxGeometry x="0.3227" relative="1" as="geometry">
                        <Array as="points">
                            <mxPoint x="460" y="420"/>
                            <mxPoint x="201" y="420"/>
                        </Array>
                        <mxPoint as="offset"/>
                    </mxGeometry>
                </mxCell>
                <mxCell id="45O4lD2CLwNiYDrFNKsz-21" value="0,n" style="edgeLabel;html=1;align=center;verticalAlign=middle;resizable=0;points=[];" parent="45O4lD2CLwNiYDrFNKsz-12" vertex="1" connectable="0">
                    <mxGeometry x="-0.2357" y="-2" relative="1" as="geometry">
                        <mxPoint x="-39" as="offset"/>
                    </mxGeometry>
                </mxCell>
                <mxCell id="45O4lD2CLwNiYDrFNKsz-9" value="supervise" style="ellipse;" parent="45O4lD2CLwNiYDrFNKsz-1" vertex="1">
                    <mxGeometry x="414" y="200" width="100" height="70" as="geometry"/>
                </mxCell>
                <mxCell id="45O4lD2CLwNiYDrFNKsz-11" value="superviseur" style="edgeStyle=none;html=1;exitX=1;exitY=0.5;exitDx=0;exitDy=0;entryX=0.033;entryY=0.667;entryDx=0;entryDy=0;entryPerimeter=0;endArrow=none;endFill=0;" parent="45O4lD2CLwNiYDrFNKsz-1" source="45O4lD2CLwNiYDrFNKsz-7" target="45O4lD2CLwNiYDrFNKsz-9" edge="1">
                    <mxGeometry x="-0.2388" y="-1" relative="1" as="geometry">
                        <mxPoint as="offset"/>
                    </mxGeometry>
                </mxCell>
                <mxCell id="45O4lD2CLwNiYDrFNKsz-20" value="0,n" style="edgeLabel;html=1;align=center;verticalAlign=middle;resizable=0;points=[];" parent="45O4lD2CLwNiYDrFNKsz-11" vertex="1" connectable="0">
                    <mxGeometry x="0.4901" y="-1" relative="1" as="geometry">
                        <mxPoint as="offset"/>
                    </mxGeometry>
                </mxCell>
                <mxCell id="45O4lD2CLwNiYDrFNKsz-13" value="&lt;b&gt;&lt;font style=&quot;font-size: 15px&quot;&gt;MLD&lt;/font&gt;&lt;/b&gt;" style="text;html=1;strokeColor=none;fillColor=none;align=center;verticalAlign=middle;whiteSpace=wrap;rounded=0;" parent="45O4lD2CLwNiYDrFNKsz-1" vertex="1">
                    <mxGeometry x="31" y="490" width="60" height="30" as="geometry"/>
                </mxCell>
                <mxCell id="45O4lD2CLwNiYDrFNKsz-14" value="Employe" style="swimlane;fontStyle=1;align=center;verticalAlign=middle;childLayout=stackLayout;horizontal=1;startSize=29;horizontalStack=0;resizeParent=1;resizeParentMax=0;resizeLast=0;collapsible=0;marginBottom=0;html=1;" parent="45O4lD2CLwNiYDrFNKsz-1" vertex="1">
                    <mxGeometry x="120" y="560" width="140" height="129" as="geometry"/>
                </mxCell>
                <mxCell id="45O4lD2CLwNiYDrFNKsz-15" value="id" style="text;html=1;strokeColor=#001DBC;fillColor=#0050ef;align=center;verticalAlign=middle;spacingLeft=4;spacingRight=4;overflow=hidden;rotatable=0;points=[[0,0.5],[1,0.5]];portConstraint=eastwest;fontColor=#ffffff;" parent="45O4lD2CLwNiYDrFNKsz-14" vertex="1">
                    <mxGeometry y="29" width="140" height="25" as="geometry"/>
                </mxCell>
                <mxCell id="45O4lD2CLwNiYDrFNKsz-16" value="nom" style="text;html=1;strokeColor=none;fillColor=none;align=center;verticalAlign=middle;spacingLeft=4;spacingRight=4;overflow=hidden;rotatable=0;points=[[0,0.5],[1,0.5]];portConstraint=eastwest;" parent="45O4lD2CLwNiYDrFNKsz-14" vertex="1">
                    <mxGeometry y="54" width="140" height="25" as="geometry"/>
                </mxCell>
                <mxCell id="45O4lD2CLwNiYDrFNKsz-17" value="prenom" style="text;html=1;strokeColor=none;fillColor=none;align=center;verticalAlign=middle;spacingLeft=4;spacingRight=4;overflow=hidden;rotatable=0;points=[[0,0.5],[1,0.5]];portConstraint=eastwest;" parent="45O4lD2CLwNiYDrFNKsz-14" vertex="1">
                    <mxGeometry y="79" width="140" height="25" as="geometry"/>
                </mxCell>
                <mxCell id="45O4lD2CLwNiYDrFNKsz-18" value="email" style="text;html=1;strokeColor=none;fillColor=none;align=center;verticalAlign=middle;spacingLeft=4;spacingRight=4;overflow=hidden;rotatable=0;points=[[0,0.5],[1,0.5]];portConstraint=eastwest;" parent="45O4lD2CLwNiYDrFNKsz-14" vertex="1">
                    <mxGeometry y="104" width="140" height="25" as="geometry"/>
                </mxCell>
                <mxCell id="45O4lD2CLwNiYDrFNKsz-22" value="Supervision" style="swimlane;fontStyle=1;align=center;verticalAlign=middle;childLayout=stackLayout;horizontal=1;startSize=29;horizontalStack=0;resizeParent=1;resizeParentMax=0;resizeLast=0;collapsible=0;marginBottom=0;html=1;" parent="45O4lD2CLwNiYDrFNKsz-1" vertex="1">
                    <mxGeometry x="360" y="560" width="140" height="104" as="geometry"/>
                </mxCell>
                <mxCell id="45O4lD2CLwNiYDrFNKsz-23" value="id" style="text;html=1;strokeColor=#001DBC;fillColor=#0050ef;align=center;verticalAlign=middle;spacingLeft=4;spacingRight=4;overflow=hidden;rotatable=0;points=[[0,0.5],[1,0.5]];portConstraint=eastwest;fontColor=#ffffff;" parent="45O4lD2CLwNiYDrFNKsz-22" vertex="1">
                    <mxGeometry y="29" width="140" height="25" as="geometry"/>
                </mxCell>
                <mxCell id="45O4lD2CLwNiYDrFNKsz-26" value="id_employe_junior" style="text;html=1;strokeColor=#6F0000;fillColor=#a20025;align=center;verticalAlign=middle;spacingLeft=4;spacingRight=4;overflow=hidden;rotatable=0;points=[[0,0.5],[1,0.5]];portConstraint=eastwest;fontColor=#ffffff;" parent="45O4lD2CLwNiYDrFNKsz-22" vertex="1">
                    <mxGeometry y="54" width="140" height="25" as="geometry"/>
                </mxCell>
                <mxCell id="45O4lD2CLwNiYDrFNKsz-27" value="id_employe_chef" style="text;html=1;strokeColor=#6F0000;fillColor=#a20025;align=center;verticalAlign=middle;spacingLeft=4;spacingRight=4;overflow=hidden;rotatable=0;points=[[0,0.5],[1,0.5]];portConstraint=eastwest;fontColor=#ffffff;" parent="45O4lD2CLwNiYDrFNKsz-22" vertex="1">
                    <mxGeometry y="79" width="140" height="25" as="geometry"/>
                </mxCell>
                <mxCell id="45O4lD2CLwNiYDrFNKsz-28" style="edgeStyle=none;html=1;exitX=1;exitY=0.5;exitDx=0;exitDy=0;entryX=0;entryY=0.5;entryDx=0;entryDy=0;endArrow=none;endFill=0;" parent="45O4lD2CLwNiYDrFNKsz-1" source="45O4lD2CLwNiYDrFNKsz-16" target="45O4lD2CLwNiYDrFNKsz-26" edge="1">
                    <mxGeometry relative="1" as="geometry"/>
                </mxCell>
                <mxCell id="45O4lD2CLwNiYDrFNKsz-29" value="&lt;b&gt;&lt;font style=&quot;font-size: 15px&quot;&gt;MCD&lt;/font&gt;&lt;/b&gt;" style="text;html=1;strokeColor=none;fillColor=none;align=center;verticalAlign=middle;whiteSpace=wrap;rounded=0;" parent="45O4lD2CLwNiYDrFNKsz-1" vertex="1">
                    <mxGeometry x="39" y="800" width="60" height="30" as="geometry"/>
                </mxCell>
                <mxCell id="45O4lD2CLwNiYDrFNKsz-30" value="Employe" style="swimlane;fontStyle=1;align=center;verticalAlign=middle;childLayout=stackLayout;horizontal=1;startSize=29;horizontalStack=0;resizeParent=1;resizeParentMax=0;resizeLast=0;collapsible=0;marginBottom=0;html=1;" parent="45O4lD2CLwNiYDrFNKsz-1" vertex="1">
                    <mxGeometry x="128" y="840" width="140" height="129" as="geometry"/>
                </mxCell>
                <mxCell id="45O4lD2CLwNiYDrFNKsz-31" value="id" style="text;html=1;strokeColor=none;fillColor=none;align=center;verticalAlign=middle;spacingLeft=4;spacingRight=4;overflow=hidden;rotatable=0;points=[[0,0.5],[1,0.5]];portConstraint=eastwest;" parent="45O4lD2CLwNiYDrFNKsz-30" vertex="1">
                    <mxGeometry y="29" width="140" height="25" as="geometry"/>
                </mxCell>
                <mxCell id="45O4lD2CLwNiYDrFNKsz-32" value="nom" style="text;html=1;strokeColor=none;fillColor=none;align=center;verticalAlign=middle;spacingLeft=4;spacingRight=4;overflow=hidden;rotatable=0;points=[[0,0.5],[1,0.5]];portConstraint=eastwest;" parent="45O4lD2CLwNiYDrFNKsz-30" vertex="1">
                    <mxGeometry y="54" width="140" height="25" as="geometry"/>
                </mxCell>
                <mxCell id="45O4lD2CLwNiYDrFNKsz-33" value="prenom" style="text;html=1;strokeColor=none;fillColor=none;align=center;verticalAlign=middle;spacingLeft=4;spacingRight=4;overflow=hidden;rotatable=0;points=[[0,0.5],[1,0.5]];portConstraint=eastwest;" parent="45O4lD2CLwNiYDrFNKsz-30" vertex="1">
                    <mxGeometry y="79" width="140" height="25" as="geometry"/>
                </mxCell>
                <mxCell id="45O4lD2CLwNiYDrFNKsz-34" value="email" style="text;html=1;strokeColor=none;fillColor=none;align=center;verticalAlign=middle;spacingLeft=4;spacingRight=4;overflow=hidden;rotatable=0;points=[[0,0.5],[1,0.5]];portConstraint=eastwest;" parent="45O4lD2CLwNiYDrFNKsz-30" vertex="1">
                    <mxGeometry y="104" width="140" height="25" as="geometry"/>
                </mxCell>
                <mxCell id="45O4lD2CLwNiYDrFNKsz-35" value="supervisé" style="edgeStyle=none;html=1;exitX=0.5;exitY=1;exitDx=0;exitDy=0;entryX=0.582;entryY=1.04;entryDx=0;entryDy=0;entryPerimeter=0;endArrow=none;endFill=0;" parent="45O4lD2CLwNiYDrFNKsz-1" source="45O4lD2CLwNiYDrFNKsz-37" target="45O4lD2CLwNiYDrFNKsz-34" edge="1">
                    <mxGeometry x="0.3227" relative="1" as="geometry">
                        <Array as="points">
                            <mxPoint x="468" y="1060"/>
                            <mxPoint x="209" y="1060"/>
                        </Array>
                        <mxPoint as="offset"/>
                    </mxGeometry>
                </mxCell>
                <mxCell id="45O4lD2CLwNiYDrFNKsz-36" value="0,1" style="edgeLabel;html=1;align=center;verticalAlign=middle;resizable=0;points=[];" parent="45O4lD2CLwNiYDrFNKsz-35" vertex="1" connectable="0">
                    <mxGeometry x="-0.2357" y="-2" relative="1" as="geometry">
                        <mxPoint x="-35" as="offset"/>
                    </mxGeometry>
                </mxCell>
                <mxCell id="45O4lD2CLwNiYDrFNKsz-37" value="supervise" style="ellipse;" parent="45O4lD2CLwNiYDrFNKsz-1" vertex="1">
                    <mxGeometry x="422" y="840" width="100" height="70" as="geometry"/>
                </mxCell>
                <mxCell id="45O4lD2CLwNiYDrFNKsz-38" value="superviseur" style="edgeStyle=none;html=1;exitX=1;exitY=0.5;exitDx=0;exitDy=0;entryX=0.033;entryY=0.667;entryDx=0;entryDy=0;entryPerimeter=0;endArrow=none;endFill=0;" parent="45O4lD2CLwNiYDrFNKsz-1" source="45O4lD2CLwNiYDrFNKsz-32" target="45O4lD2CLwNiYDrFNKsz-37" edge="1">
                    <mxGeometry x="-0.2388" y="-1" relative="1" as="geometry">
                        <mxPoint as="offset"/>
                    </mxGeometry>
                </mxCell>
                <mxCell id="45O4lD2CLwNiYDrFNKsz-39" value="0,n" style="edgeLabel;html=1;align=center;verticalAlign=middle;resizable=0;points=[];" parent="45O4lD2CLwNiYDrFNKsz-38" vertex="1" connectable="0">
                    <mxGeometry x="0.4901" y="-1" relative="1" as="geometry">
                        <mxPoint as="offset"/>
                    </mxGeometry>
                </mxCell>
                <mxCell id="45O4lD2CLwNiYDrFNKsz-40" value="&lt;b&gt;&lt;font style=&quot;font-size: 15px&quot;&gt;MLD&lt;/font&gt;&lt;/b&gt;" style="text;html=1;strokeColor=none;fillColor=none;align=center;verticalAlign=middle;whiteSpace=wrap;rounded=0;" parent="45O4lD2CLwNiYDrFNKsz-1" vertex="1">
                    <mxGeometry x="39" y="1130" width="60" height="30" as="geometry"/>
                </mxCell>
                <mxCell id="45O4lD2CLwNiYDrFNKsz-41" value="Employe" style="swimlane;fontStyle=1;align=center;verticalAlign=middle;childLayout=stackLayout;horizontal=1;startSize=29;horizontalStack=0;resizeParent=1;resizeParentMax=0;resizeLast=0;collapsible=0;marginBottom=0;html=1;" parent="45O4lD2CLwNiYDrFNKsz-1" vertex="1">
                    <mxGeometry x="120" y="1200" width="140" height="154" as="geometry"/>
                </mxCell>
                <mxCell id="45O4lD2CLwNiYDrFNKsz-42" value="id" style="text;html=1;strokeColor=#001DBC;fillColor=#0050ef;align=center;verticalAlign=middle;spacingLeft=4;spacingRight=4;overflow=hidden;rotatable=0;points=[[0,0.5],[1,0.5]];portConstraint=eastwest;fontColor=#ffffff;" parent="45O4lD2CLwNiYDrFNKsz-41" vertex="1">
                    <mxGeometry y="29" width="140" height="25" as="geometry"/>
                </mxCell>
                <mxCell id="45O4lD2CLwNiYDrFNKsz-43" value="nom" style="text;html=1;strokeColor=none;fillColor=none;align=center;verticalAlign=middle;spacingLeft=4;spacingRight=4;overflow=hidden;rotatable=0;points=[[0,0.5],[1,0.5]];portConstraint=eastwest;" parent="45O4lD2CLwNiYDrFNKsz-41" vertex="1">
                    <mxGeometry y="54" width="140" height="25" as="geometry"/>
                </mxCell>
                <mxCell id="45O4lD2CLwNiYDrFNKsz-44" value="prenom" style="text;html=1;strokeColor=none;fillColor=none;align=center;verticalAlign=middle;spacingLeft=4;spacingRight=4;overflow=hidden;rotatable=0;points=[[0,0.5],[1,0.5]];portConstraint=eastwest;" parent="45O4lD2CLwNiYDrFNKsz-41" vertex="1">
                    <mxGeometry y="79" width="140" height="25" as="geometry"/>
                </mxCell>
                <mxCell id="45O4lD2CLwNiYDrFNKsz-45" value="email" style="text;html=1;strokeColor=none;fillColor=none;align=center;verticalAlign=middle;spacingLeft=4;spacingRight=4;overflow=hidden;rotatable=0;points=[[0,0.5],[1,0.5]];portConstraint=eastwest;" parent="45O4lD2CLwNiYDrFNKsz-41" vertex="1">
                    <mxGeometry y="104" width="140" height="25" as="geometry"/>
                </mxCell>
                <mxCell id="45O4lD2CLwNiYDrFNKsz-52" value="id_employe_superviseur" style="text;html=1;strokeColor=#6F0000;fillColor=#a20025;align=center;verticalAlign=middle;spacingLeft=4;spacingRight=4;overflow=hidden;rotatable=0;points=[[0,0.5],[1,0.5]];portConstraint=eastwest;fontColor=#ffffff;" parent="45O4lD2CLwNiYDrFNKsz-41" vertex="1">
                    <mxGeometry y="129" width="140" height="25" as="geometry"/>
                </mxCell>
                <mxCell id="45O4lD2CLwNiYDrFNKsz-51" value="&lt;b&gt;&lt;font style=&quot;font-size: 15px&quot;&gt;BIS: un employé est supervisé par un seul superviseur (1:n = n:1)&lt;/font&gt;&lt;/b&gt;" style="text;html=1;strokeColor=none;fillColor=none;align=left;verticalAlign=middle;whiteSpace=wrap;rounded=0;" parent="45O4lD2CLwNiYDrFNKsz-1" vertex="1">
                    <mxGeometry x="39" y="770" width="641" height="30" as="geometry"/>
                </mxCell>
            </root>
        </mxGraphModel>
    </diagram>
    <diagram id="sgDYUgEw9o6hflkKmTW-" name="ex7">
        <mxGraphModel dx="883" dy="609" grid="1" gridSize="10" guides="1" tooltips="1" connect="1" arrows="1" fold="1" page="1" pageScale="1" pageWidth="827" pageHeight="1169" math="0" shadow="0">
            <root>
                <mxCell id="pIZCVWTz3eq55V5YofsB-0"/>
                <mxCell id="pIZCVWTz3eq55V5YofsB-1" parent="pIZCVWTz3eq55V5YofsB-0"/>
                <mxCell id="RvZ0nioD-WNi8UGsB39Q-0" value="&lt;h1&gt;Exercice 7&lt;/h1&gt;&lt;p&gt;Dessinez le MCD et le MLD pour cette situation: réalisation de virements bancaires par des clients&lt;/p&gt;" style="text;html=1;strokeColor=none;fillColor=none;spacing=5;spacingTop=-20;whiteSpace=wrap;overflow=hidden;rounded=0;" parent="pIZCVWTz3eq55V5YofsB-1" vertex="1">
                    <mxGeometry x="40" y="40" width="740" height="90" as="geometry"/>
                </mxCell>
                <mxCell id="RvZ0nioD-WNi8UGsB39Q-1" value="&lt;b&gt;&lt;font style=&quot;font-size: 15px&quot;&gt;MCD&lt;/font&gt;&lt;/b&gt;" style="text;html=1;strokeColor=none;fillColor=none;align=center;verticalAlign=middle;whiteSpace=wrap;rounded=0;" parent="pIZCVWTz3eq55V5YofsB-1" vertex="1">
                    <mxGeometry x="31" y="160" width="60" height="30" as="geometry"/>
                </mxCell>
            </root>
        </mxGraphModel>
    </diagram>
</mxfile>